<svg xmlns="http://www.w3.org/2000/svg" xmlns:xlink="http://www.w3.org/1999/xlink" width="200" zoomAndPan="magnify" viewBox="0 0 150 149.999998" height="200" preserveAspectRatio="xMidYMid meet" version="1.2"><defs><clipPath id="e83c5eca6f"><path d="M 10.828125 40.347656 L 139 40.347656 L 139 109.347656 L 10.828125 109.347656 Z M 10.828125 40.347656 "/></clipPath></defs><g id="d7fc8cf8d0"><g clip-rule="nonzero" clip-path="url(#e83c5eca6f)"><path style=" stroke:none;fill-rule:nonzero;fill:#fff7f3;fill-opacity:1;" d="M 106.886719 105.085938 C 106.574219 100.289062 105.191406 95.609375 102.84375 91.4375 C 102.84375 91.433594 102.84375 91.433594 102.84375 91.433594 C 105.890625 89.445312 109.40625 88.394531 113.089844 88.394531 L 114.320312 88.394531 C 114.328125 88.394531 114.335938 88.394531 114.34375 88.394531 C 114.351562 88.394531 114.359375 88.394531 114.367188 88.394531 L 115.601562 88.394531 C 125.25 88.394531 133.222656 95.710938 134.261719 105.085938 Z M 46.90625 105.082031 C 47.210938 100.976562 48.421875 96.976562 50.445312 93.40625 C 55.402344 84.648438 64.722656 79.207031 74.773438 79.195312 C 74.785156 79.195312 74.792969 79.199219 74.800781 79.199219 C 74.8125 79.199219 74.824219 79.195312 74.835938 79.195312 C 82.292969 79.207031 89.308594 82.113281 94.585938 87.390625 C 96.398438 89.203125 97.953125 91.253906 99.203125 93.484375 C 101.203125 97.03125 102.394531 101.007812 102.699219 105.082031 Z M 33.84375 88.394531 L 35.074219 88.394531 C 35.082031 88.394531 35.089844 88.394531 35.097656 88.394531 C 35.105469 88.394531 35.117188 88.394531 35.125 88.394531 L 36.355469 88.394531 C 40.085938 88.394531 43.644531 89.472656 46.71875 91.515625 C 44.398438 95.667969 43.03125 100.316406 42.71875 105.085938 L 15.179688 105.085938 C 16.222656 95.710938 24.195312 88.394531 33.84375 88.394531 Z M 35.097656 64.796875 C 40.453125 64.796875 44.808594 69.152344 44.808594 74.507812 C 44.808594 79.851562 40.46875 84.203125 35.125 84.21875 L 35.074219 84.21875 C 29.730469 84.203125 25.386719 79.851562 25.386719 74.507812 C 25.386719 69.152344 29.746094 64.796875 35.097656 64.796875 Z M 59.597656 59.816406 C 59.597656 51.433594 66.417969 44.613281 74.800781 44.613281 C 83.1875 44.613281 90.007812 51.433594 90.007812 59.816406 C 90.007812 68.191406 83.199219 75.007812 74.824219 75.019531 C 74.816406 75.019531 74.808594 75.019531 74.800781 75.019531 C 74.796875 75.019531 74.789062 75.019531 74.78125 75.019531 C 66.40625 75.007812 59.597656 68.191406 59.597656 59.816406 Z M 114.34375 64.796875 C 119.699219 64.796875 124.054688 69.152344 124.054688 74.507812 C 124.054688 79.851562 119.710938 84.203125 114.367188 84.21875 L 114.320312 84.21875 C 108.976562 84.203125 104.632812 79.851562 104.632812 74.507812 C 104.632812 69.152344 108.988281 64.796875 114.34375 64.796875 Z M 122.921875 85.414062 C 126.152344 82.871094 128.230469 78.929688 128.230469 74.507812 C 128.230469 66.847656 122 60.621094 114.34375 60.621094 C 106.6875 60.621094 100.457031 66.847656 100.457031 74.507812 C 100.457031 78.925781 102.53125 82.863281 105.757812 85.410156 C 103.9375 86.023438 102.195312 86.871094 100.5625 87.9375 C 99.640625 86.703125 98.632812 85.53125 97.539062 84.4375 C 93.851562 80.75 89.425781 78.070312 84.597656 76.535156 C 90.328125 73.164062 94.183594 66.933594 94.183594 59.816406 C 94.183594 49.128906 85.488281 40.433594 74.800781 40.433594 C 64.117188 40.433594 55.421875 49.128906 55.421875 59.816406 C 55.421875 66.941406 59.289062 73.183594 65.035156 76.550781 C 58.667969 78.585938 53.03125 82.574219 48.988281 88.007812 C 47.324219 86.90625 45.546875 86.035156 43.6875 85.410156 C 46.910156 82.863281 48.988281 78.925781 48.988281 74.507812 C 48.988281 66.847656 42.757812 60.621094 35.097656 60.621094 C 27.441406 60.621094 21.210938 66.847656 21.210938 74.507812 C 21.210938 78.929688 23.289062 82.871094 26.519531 85.414062 C 17.441406 88.480469 10.886719 97.074219 10.886719 107.171875 C 10.886719 108.324219 11.824219 109.261719 12.976562 109.261719 L 44.503906 109.261719 C 44.546875 109.261719 44.585938 109.257812 44.628906 109.253906 C 44.664062 109.257812 44.703125 109.261719 44.738281 109.261719 L 104.867188 109.261719 C 104.875 109.261719 104.886719 109.257812 104.894531 109.257812 C 104.910156 109.257812 104.925781 109.261719 104.9375 109.261719 L 136.464844 109.261719 C 137.621094 109.261719 138.554688 108.324219 138.554688 107.171875 C 138.554688 97.074219 132 88.480469 122.921875 85.414062 "/><path style=" stroke:none;fill-rule:nonzero;fill:#fff7f3;fill-opacity:1;" d="M 74.824219 75.078125 L 74.8125 75.078125 L 74.800781 75.019531 L 74.800781 74.960938 L 74.8125 74.960938 C 83.164062 74.949219 89.949219 68.15625 89.949219 59.816406 C 89.949219 51.464844 83.152344 44.667969 74.800781 44.667969 C 66.449219 44.667969 59.65625 51.464844 59.65625 59.816406 C 59.65625 68.15625 66.441406 74.953125 74.78125 74.960938 L 74.800781 75.019531 L 74.792969 75.078125 C 66.378906 75.066406 59.539062 68.222656 59.539062 59.816406 C 59.539062 51.398438 66.386719 44.554688 74.800781 44.554688 C 83.21875 44.554688 90.066406 51.398438 90.066406 59.816406 C 90.066406 68.21875 83.226562 75.066406 74.824219 75.078125 Z M 35.097656 64.855469 C 29.777344 64.855469 25.445312 69.183594 25.445312 74.507812 C 25.445312 79.816406 29.765625 84.144531 35.074219 84.160156 L 35.125 84.160156 C 40.433594 84.144531 44.753906 79.816406 44.753906 74.507812 C 44.753906 69.183594 40.421875 64.855469 35.097656 64.855469 Z M 35.125 84.273438 L 35.074219 84.273438 C 29.703125 84.261719 25.328125 79.878906 25.328125 74.507812 C 25.328125 69.121094 29.710938 64.738281 35.097656 64.738281 C 40.484375 64.738281 44.867188 69.121094 44.867188 74.507812 C 44.867188 79.878906 40.496094 84.261719 35.125 84.273438 Z M 114.34375 64.855469 C 109.019531 64.855469 104.691406 69.183594 104.691406 74.507812 C 104.691406 79.816406 109.011719 84.144531 114.320312 84.160156 L 114.367188 84.160156 C 119.675781 84.144531 123.996094 79.816406 123.996094 74.507812 C 123.996094 69.183594 119.667969 64.855469 114.34375 64.855469 Z M 114.367188 84.273438 L 114.320312 84.273438 C 108.945312 84.261719 104.574219 79.878906 104.574219 74.507812 C 104.574219 69.121094 108.957031 64.738281 114.34375 64.738281 C 119.730469 64.738281 124.113281 69.121094 124.113281 74.507812 C 124.113281 79.878906 119.742188 84.261719 114.367188 84.273438 Z M 46.96875 105.027344 L 102.636719 105.027344 C 102.324219 100.988281 101.121094 97.007812 99.152344 93.511719 C 97.902344 91.289062 96.351562 89.242188 94.542969 87.433594 C 89.277344 82.167969 82.277344 79.261719 74.835938 79.253906 L 74.773438 79.253906 C 64.746094 79.265625 55.441406 84.699219 50.496094 93.433594 C 48.5 96.953125 47.28125 100.960938 46.96875 105.027344 Z M 102.761719 105.140625 L 46.84375 105.140625 L 46.847656 105.078125 C 47.15625 100.976562 48.378906 96.929688 50.394531 93.378906 C 55.359375 84.605469 64.703125 79.148438 74.773438 79.140625 L 74.835938 79.140625 C 82.308594 79.148438 89.339844 82.0625 94.625 87.351562 C 96.441406 89.167969 98 91.222656 99.253906 93.453125 C 101.242188 96.984375 102.453125 101.003906 102.757812 105.078125 Z M 15.246094 105.027344 L 42.664062 105.027344 C 42.980469 100.304688 44.355469 95.640625 46.640625 91.53125 C 43.589844 89.515625 40.035156 88.453125 36.355469 88.453125 L 33.84375 88.453125 C 24.3125 88.453125 16.328125 95.574219 15.246094 105.027344 Z M 42.773438 105.140625 L 15.113281 105.140625 L 15.121094 105.078125 C 15.628906 100.507812 17.804688 96.28125 21.246094 93.179688 C 24.710938 90.054688 29.1875 88.335938 33.84375 88.335938 L 36.355469 88.335938 C 40.074219 88.335938 43.671875 89.417969 46.75 91.464844 L 46.796875 91.496094 L 46.769531 91.542969 C 44.46875 95.664062 43.085938 100.347656 42.777344 105.089844 Z M 106.941406 105.027344 L 134.199219 105.027344 C 133.113281 95.574219 125.128906 88.453125 115.601562 88.453125 L 113.089844 88.453125 C 109.460938 88.453125 105.945312 89.488281 102.921875 91.453125 C 105.234375 95.578125 106.621094 100.269531 106.941406 105.027344 Z M 134.328125 105.140625 L 106.832031 105.140625 L 106.828125 105.089844 C 106.515625 100.3125 105.121094 95.601562 102.792969 91.464844 L 102.769531 91.417969 L 102.8125 91.386719 C 105.867188 89.390625 109.417969 88.335938 113.089844 88.335938 L 115.601562 88.335938 C 120.257812 88.335938 124.730469 90.054688 128.199219 93.179688 C 131.636719 96.28125 133.8125 100.507812 134.320312 105.078125 Z M 104.894531 109.199219 C 104.90625 109.199219 104.910156 109.203125 104.917969 109.203125 C 104.925781 109.203125 104.933594 109.203125 104.9375 109.203125 L 136.464844 109.203125 C 137.585938 109.203125 138.496094 108.292969 138.496094 107.171875 C 138.496094 97.339844 132.230469 88.617188 122.90625 85.46875 L 122.804688 85.4375 L 122.886719 85.371094 C 126.246094 82.722656 128.175781 78.761719 128.175781 74.507812 C 128.175781 66.882812 121.96875 60.675781 114.34375 60.675781 C 106.71875 60.675781 100.515625 66.882812 100.515625 74.507812 C 100.515625 78.757812 102.4375 82.714844 105.792969 85.363281 L 105.875 85.429688 L 105.773438 85.464844 C 103.964844 86.074219 102.222656 86.921875 100.59375 87.984375 L 100.550781 88.015625 L 100.515625 87.972656 C 99.589844 86.730469 98.574219 85.554688 97.496094 84.480469 C 93.871094 80.855469 89.40625 78.125 84.578125 76.589844 L 84.457031 76.550781 L 84.566406 76.484375 C 90.464844 73.015625 94.125 66.628906 94.125 59.816406 C 94.125 49.160156 85.457031 40.492188 74.800781 40.492188 C 64.148438 40.492188 55.480469 49.160156 55.480469 59.816406 C 55.480469 66.640625 59.152344 73.035156 65.0625 76.5 L 65.175781 76.566406 L 65.050781 76.605469 C 58.605469 78.667969 53.066406 82.621094 49.035156 88.042969 L 49.003906 88.085938 L 48.957031 88.058594 C 47.300781 86.960938 45.519531 86.085938 43.667969 85.464844 L 43.566406 85.429688 L 43.652344 85.363281 C 47.003906 82.714844 48.929688 78.757812 48.929688 74.507812 C 48.929688 66.882812 42.726562 60.675781 35.097656 60.675781 C 27.472656 60.675781 21.269531 66.882812 21.269531 74.507812 C 21.269531 78.761719 23.195312 82.722656 26.554688 85.371094 L 26.640625 85.4375 L 26.539062 85.46875 C 17.210938 88.617188 10.945312 97.339844 10.945312 107.171875 C 10.945312 108.292969 11.855469 109.203125 12.976562 109.203125 L 44.503906 109.203125 C 44.535156 109.203125 44.5625 109.199219 44.589844 109.199219 L 44.625 109.195312 L 44.667969 109.199219 C 44.691406 109.199219 44.714844 109.203125 44.738281 109.203125 L 104.867188 109.203125 Z M 136.464844 109.320312 L 104.9375 109.320312 C 104.929688 109.320312 104.921875 109.320312 104.910156 109.316406 L 104.894531 109.316406 C 104.878906 109.316406 104.871094 109.320312 104.867188 109.320312 L 44.738281 109.320312 C 44.710938 109.320312 44.6875 109.316406 44.660156 109.316406 L 44.625 109.3125 L 44.597656 109.316406 C 44.566406 109.316406 44.535156 109.320312 44.503906 109.320312 L 12.976562 109.320312 C 11.792969 109.320312 10.828125 108.355469 10.828125 107.171875 C 10.828125 97.324219 17.082031 88.585938 26.398438 85.394531 C 23.0625 82.726562 21.152344 78.761719 21.152344 74.507812 C 21.152344 66.816406 27.410156 60.5625 35.097656 60.5625 C 42.789062 60.5625 49.046875 66.816406 49.046875 74.507812 C 49.046875 78.757812 47.136719 82.71875 43.804688 85.386719 C 45.613281 86.007812 47.351562 86.859375 48.976562 87.929688 C 52.992188 82.546875 58.496094 78.609375 64.894531 76.535156 C 62.0625 74.851562 59.6875 72.460938 58.023438 69.621094 C 56.28125 66.65625 55.363281 63.265625 55.363281 59.816406 C 55.363281 49.097656 64.082031 40.375 74.800781 40.375 C 85.519531 40.375 94.242188 49.097656 94.242188 59.816406 C 94.242188 63.261719 93.324219 66.648438 91.589844 69.609375 C 89.925781 72.445312 87.558594 74.832031 84.738281 76.519531 C 89.535156 78.066406 93.972656 80.789062 97.578125 84.398438 C 98.648438 85.464844 99.65625 86.628906 100.578125 87.859375 C 102.167969 86.824219 103.871094 85.992188 105.636719 85.386719 C 102.304688 82.71875 100.398438 78.757812 100.398438 74.507812 C 100.398438 66.816406 106.65625 60.5625 114.34375 60.5625 C 122.035156 60.5625 128.289062 66.816406 128.289062 74.507812 C 128.289062 78.761719 126.378906 82.726562 123.042969 85.394531 C 132.359375 88.585938 138.613281 97.324219 138.613281 107.171875 C 138.613281 108.355469 137.652344 109.320312 136.464844 109.320312 "/></g></g></svg>