<svg xmlns="http://www.w3.org/2000/svg" xmlns:xlink="http://www.w3.org/1999/xlink" width="200" zoomAndPan="magnify" viewBox="0 0 150 149.999998" height="200" preserveAspectRatio="xMidYMid meet" version="1.2"><defs><clipPath id="63478dd79d"><path d="M 10.828125 21 L 131 21 L 131 123 L 10.828125 123 Z M 10.828125 21 "/></clipPath><clipPath id="2642b50a54"><path d="M 121 43 L 139.078125 43 L 139.078125 62 L 121 62 Z M 121 43 "/></clipPath><clipPath id="8826e8cc9b"><path d="M 81 10.589844 L 106 10.589844 L 106 35 L 81 35 Z M 81 10.589844 "/></clipPath></defs><g id="2e360ff423"><g clip-rule="nonzero" clip-path="url(#63478dd79d)"><path style=" stroke:none;fill-rule:nonzero;fill:#a0a7aa;fill-opacity:1;" d="M 41.230469 122.523438 L 10.828125 76.761719 L 28.488281 37.203125 L 93.386719 21.875 L 93.703125 23.214844 L 29.464844 38.382812 L 12.394531 76.628906 L 41.710938 120.761719 L 103.449219 90.738281 L 129.488281 52.347656 L 130.625 53.121094 L 104.382812 91.8125 Z M 41.230469 122.523438 "/></g><path style=" stroke:none;fill-rule:nonzero;fill:#a0a7aa;fill-opacity:1;" d="M 42.0625 121.996094 L 40.878906 121.292969 L 64.582031 81.472656 L 104.070312 90.605469 L 103.761719 91.945312 L 65.25 83.039062 Z M 42.0625 121.996094 "/><path style=" stroke:none;fill-rule:nonzero;fill:#a0a7aa;fill-opacity:1;" d="M 60.320312 48.308594 L 28.769531 38.449219 L 29.179688 37.136719 L 60.058594 46.785156 L 93.132812 21.996094 L 93.957031 23.09375 Z M 60.320312 48.308594 "/><path style=" stroke:none;fill-rule:nonzero;fill:#a0a7aa;fill-opacity:1;" d="M 64.359375 83.261719 L 59.390625 46.800781 L 132.792969 52.246094 Z M 60.984375 48.296875 L 65.472656 81.25 L 127.320312 53.21875 Z M 60.984375 48.296875 "/><path style=" stroke:none;fill-rule:nonzero;fill:#a0a7aa;fill-opacity:1;" d="M 64.84375 82.941406 L 12.734375 77.503906 C 11.695312 77.394531 11.390625 76.023438 12.285156 75.488281 L 59.835938 46.957031 L 60.542969 48.136719 L 13.730469 76.222656 L 64.988281 81.570312 L 64.847656 82.9375 Z M 64.84375 82.941406 "/><path style=" stroke:none;fill-rule:nonzero;fill:#64b5f6;fill-opacity:1;" d="M 36.078125 37.792969 C 36.078125 38.261719 36.035156 38.722656 35.941406 39.179688 C 35.851562 39.636719 35.71875 40.082031 35.539062 40.511719 C 35.359375 40.941406 35.140625 41.351562 34.882812 41.742188 C 34.625 42.128906 34.328125 42.488281 34 42.816406 C 33.667969 43.148438 33.308594 43.441406 32.921875 43.699219 C 32.535156 43.960938 32.125 44.179688 31.695312 44.355469 C 31.261719 44.535156 30.820312 44.671875 30.363281 44.761719 C 29.902344 44.851562 29.441406 44.898438 28.976562 44.898438 C 28.507812 44.898438 28.046875 44.851562 27.589844 44.761719 C 27.132812 44.671875 26.6875 44.535156 26.257812 44.355469 C 25.828125 44.179688 25.417969 43.960938 25.027344 43.699219 C 24.640625 43.441406 24.28125 43.148438 23.953125 42.816406 C 23.621094 42.488281 23.328125 42.128906 23.070312 41.742188 C 22.808594 41.351562 22.589844 40.941406 22.414062 40.511719 C 22.234375 40.082031 22.097656 39.636719 22.007812 39.179688 C 21.917969 38.722656 21.871094 38.261719 21.871094 37.792969 C 21.871094 37.328125 21.917969 36.867188 22.007812 36.40625 C 22.097656 35.949219 22.234375 35.507812 22.414062 35.074219 C 22.589844 34.644531 22.808594 34.234375 23.070312 33.847656 C 23.328125 33.460938 23.621094 33.101562 23.953125 32.769531 C 24.28125 32.441406 24.640625 32.144531 25.027344 31.886719 C 25.417969 31.628906 25.828125 31.410156 26.257812 31.230469 C 26.6875 31.050781 27.132812 30.917969 27.589844 30.828125 C 28.046875 30.734375 28.507812 30.691406 28.976562 30.691406 C 29.441406 30.691406 29.902344 30.734375 30.363281 30.828125 C 30.820312 30.917969 31.261719 31.050781 31.695312 31.230469 C 32.125 31.410156 32.535156 31.628906 32.921875 31.886719 C 33.308594 32.144531 33.667969 32.441406 34 32.769531 C 34.328125 33.101562 34.625 33.460938 34.882812 33.847656 C 35.140625 34.234375 35.359375 34.644531 35.539062 35.074219 C 35.71875 35.507812 35.851562 35.949219 35.941406 36.40625 C 36.035156 36.867188 36.078125 37.328125 36.078125 37.792969 Z M 36.078125 37.792969 "/><path style=" stroke:none;fill-rule:nonzero;fill:#e8be60;fill-opacity:1;" d="M 112.9375 91.277344 C 112.9375 91.867188 112.878906 92.453125 112.765625 93.035156 C 112.648438 93.617188 112.476562 94.179688 112.25 94.726562 C 112.023438 95.273438 111.746094 95.792969 111.417969 96.289062 C 111.089844 96.78125 110.714844 97.234375 110.296875 97.652344 C 109.875 98.074219 109.421875 98.445312 108.929688 98.777344 C 108.4375 99.105469 107.917969 99.382812 107.371094 99.609375 C 106.820312 99.835938 106.257812 100.007812 105.675781 100.121094 C 105.097656 100.238281 104.507812 100.296875 103.917969 100.296875 C 103.324219 100.296875 102.738281 100.238281 102.15625 100.121094 C 101.578125 100.007812 101.011719 99.835938 100.464844 99.609375 C 99.917969 99.382812 99.398438 99.105469 98.90625 98.777344 C 98.414062 98.445312 97.957031 98.074219 97.539062 97.652344 C 97.121094 97.234375 96.746094 96.78125 96.417969 96.289062 C 96.089844 95.792969 95.808594 95.273438 95.582031 94.726562 C 95.355469 94.179688 95.1875 93.617188 95.070312 93.035156 C 94.953125 92.453125 94.898438 91.867188 94.898438 91.277344 C 94.898438 90.683594 94.953125 90.097656 95.070312 89.515625 C 95.1875 88.933594 95.355469 88.371094 95.582031 87.824219 C 95.808594 87.277344 96.089844 86.757812 96.417969 86.265625 C 96.746094 85.773438 97.121094 85.316406 97.539062 84.898438 C 97.957031 84.480469 98.414062 84.105469 98.90625 83.777344 C 99.398438 83.445312 99.917969 83.167969 100.464844 82.941406 C 101.011719 82.714844 101.578125 82.542969 102.15625 82.429688 C 102.738281 82.3125 103.324219 82.253906 103.917969 82.253906 C 104.507812 82.253906 105.097656 82.3125 105.675781 82.429688 C 106.257812 82.542969 106.820312 82.714844 107.371094 82.941406 C 107.917969 83.167969 108.4375 83.445312 108.929688 83.777344 C 109.421875 84.105469 109.875 84.480469 110.296875 84.898438 C 110.714844 85.316406 111.089844 85.773438 111.417969 86.265625 C 111.746094 86.757812 112.023438 87.277344 112.25 87.824219 C 112.476562 88.371094 112.648438 88.933594 112.765625 89.515625 C 112.878906 90.097656 112.9375 90.683594 112.9375 91.277344 Z M 112.9375 91.277344 "/><path style=" stroke:none;fill-rule:nonzero;fill:#e8be60;fill-opacity:1;" d="M 69.941406 47.546875 C 69.941406 48.1875 69.878906 48.820312 69.753906 49.449219 C 69.628906 50.078125 69.445312 50.6875 69.199219 51.28125 C 68.953125 51.871094 68.652344 52.433594 68.296875 52.964844 C 67.941406 53.496094 67.539062 53.992188 67.085938 54.441406 C 66.632812 54.894531 66.140625 55.300781 65.605469 55.65625 C 65.074219 56.011719 64.511719 56.3125 63.921875 56.558594 C 63.328125 56.800781 62.71875 56.988281 62.089844 57.113281 C 61.464844 57.238281 60.828125 57.300781 60.1875 57.300781 C 59.546875 57.300781 58.914062 57.238281 58.285156 57.113281 C 57.65625 56.988281 57.046875 56.800781 56.457031 56.558594 C 55.863281 56.3125 55.304688 56.011719 54.769531 55.65625 C 54.238281 55.300781 53.746094 54.894531 53.292969 54.441406 C 52.839844 53.992188 52.4375 53.496094 52.078125 52.964844 C 51.722656 52.433594 51.421875 51.871094 51.179688 51.28125 C 50.933594 50.6875 50.75 50.078125 50.625 49.449219 C 50.5 48.820312 50.4375 48.1875 50.4375 47.546875 C 50.4375 46.90625 50.5 46.273438 50.625 45.644531 C 50.75 45.015625 50.933594 44.40625 51.179688 43.816406 C 51.421875 43.222656 51.722656 42.660156 52.078125 42.128906 C 52.4375 41.597656 52.839844 41.105469 53.292969 40.652344 C 53.746094 40.199219 54.238281 39.792969 54.769531 39.4375 C 55.304688 39.082031 55.863281 38.78125 56.457031 38.539062 C 57.046875 38.292969 57.65625 38.105469 58.285156 37.980469 C 58.914062 37.855469 59.546875 37.792969 60.1875 37.792969 C 60.828125 37.792969 61.464844 37.855469 62.089844 37.980469 C 62.71875 38.105469 63.328125 38.292969 63.921875 38.539062 C 64.511719 38.78125 65.074219 39.082031 65.605469 39.4375 C 66.140625 39.792969 66.632812 40.199219 67.085938 40.652344 C 67.539062 41.105469 67.941406 41.597656 68.296875 42.128906 C 68.652344 42.660156 68.953125 43.222656 69.199219 43.816406 C 69.445312 44.40625 69.628906 45.015625 69.753906 45.644531 C 69.878906 46.273438 69.941406 46.90625 69.941406 47.546875 Z M 69.941406 47.546875 "/><path style=" stroke:none;fill-rule:nonzero;fill:#64b5f6;fill-opacity:1;" d="M 50.304688 112.808594 C 50.886719 113.386719 51.402344 114.019531 51.859375 114.703125 C 52.316406 115.382812 52.699219 116.105469 53.015625 116.863281 C 53.328125 117.621094 53.566406 118.402344 53.726562 119.207031 C 53.886719 120.011719 53.964844 120.824219 53.964844 121.644531 C 53.964844 122.464844 53.886719 123.277344 53.726562 124.082031 C 53.566406 124.886719 53.328125 125.667969 53.015625 126.425781 C 52.699219 127.183594 52.316406 127.902344 51.859375 128.585938 C 51.402344 129.269531 50.886719 129.898438 50.304688 130.480469 C 49.726562 131.058594 49.09375 131.578125 48.410156 132.03125 C 47.730469 132.488281 47.007812 132.875 46.25 133.1875 C 45.492188 133.5 44.710938 133.738281 43.90625 133.898438 C 43.101562 134.058594 42.289062 134.140625 41.46875 134.140625 C 40.648438 134.140625 39.835938 134.058594 39.03125 133.898438 C 38.226562 133.738281 37.445312 133.5 36.6875 133.1875 C 35.929688 132.875 35.210938 132.488281 34.527344 132.03125 C 33.847656 131.578125 33.214844 131.058594 32.632812 130.480469 C 32.054688 129.898438 31.535156 129.269531 31.082031 128.585938 C 30.625 127.902344 30.238281 127.183594 29.925781 126.425781 C 29.613281 125.667969 29.375 124.886719 29.214844 124.082031 C 29.054688 123.277344 28.976562 122.464844 28.976562 121.644531 C 28.976562 120.824219 29.054688 120.011719 29.214844 119.207031 C 29.375 118.402344 29.613281 117.621094 29.925781 116.863281 C 30.238281 116.105469 30.625 115.382812 31.082031 114.703125 C 31.535156 114.019531 32.054688 113.386719 32.632812 112.808594 C 33.214844 112.226562 33.847656 111.710938 34.527344 111.253906 C 35.210938 110.796875 35.929688 110.414062 36.6875 110.097656 C 37.445312 109.785156 38.226562 109.546875 39.03125 109.386719 C 39.835938 109.226562 40.648438 109.148438 41.46875 109.148438 C 42.289062 109.148438 43.101562 109.226562 43.90625 109.386719 C 44.710938 109.546875 45.492188 109.785156 46.25 110.097656 C 47.007812 110.414062 47.730469 110.796875 48.410156 111.253906 C 49.09375 111.710938 49.726562 112.226562 50.304688 112.808594 Z M 50.304688 112.808594 "/><path style=" stroke:none;fill-rule:nonzero;fill:#a0a7aa;fill-opacity:1;" d="M 64.296875 81.953125 L 92.917969 22.242188 L 94.160156 22.835938 L 65.535156 82.546875 Z M 64.296875 81.953125 "/><path style=" stroke:none;fill-rule:nonzero;fill:#ed6b6b;fill-opacity:1;" d="M 73.429688 82.253906 C 73.429688 82.816406 73.375 83.367188 73.265625 83.917969 C 73.15625 84.464844 72.996094 84.996094 72.78125 85.511719 C 72.566406 86.03125 72.304688 86.519531 71.992188 86.984375 C 71.683594 87.449219 71.332031 87.878906 70.933594 88.273438 C 70.539062 88.667969 70.109375 89.023438 69.644531 89.332031 C 69.179688 89.644531 68.691406 89.90625 68.175781 90.121094 C 67.65625 90.332031 67.125 90.496094 66.578125 90.605469 C 66.027344 90.714844 65.476562 90.769531 64.917969 90.769531 C 64.359375 90.769531 63.804688 90.714844 63.253906 90.605469 C 62.707031 90.496094 62.175781 90.332031 61.660156 90.121094 C 61.140625 89.90625 60.652344 89.644531 60.1875 89.332031 C 59.722656 89.023438 59.292969 88.667969 58.898438 88.273438 C 58.503906 87.878906 58.148438 87.449219 57.839844 86.984375 C 57.527344 86.519531 57.265625 86.03125 57.050781 85.511719 C 56.839844 84.996094 56.675781 84.464844 56.566406 83.917969 C 56.457031 83.367188 56.402344 82.816406 56.402344 82.253906 C 56.402344 81.695312 56.457031 81.144531 56.566406 80.59375 C 56.675781 80.046875 56.839844 79.515625 57.050781 79 C 57.265625 78.480469 57.527344 77.992188 57.839844 77.527344 C 58.148438 77.0625 58.503906 76.632812 58.898438 76.238281 C 59.292969 75.839844 59.722656 75.488281 60.1875 75.179688 C 60.652344 74.867188 61.140625 74.605469 61.660156 74.390625 C 62.175781 74.175781 62.707031 74.015625 63.253906 73.90625 C 63.804688 73.796875 64.359375 73.742188 64.917969 73.742188 C 65.476562 73.742188 66.027344 73.796875 66.578125 73.90625 C 67.125 74.015625 67.65625 74.175781 68.175781 74.390625 C 68.691406 74.605469 69.179688 74.867188 69.644531 75.179688 C 70.109375 75.488281 70.539062 75.839844 70.933594 76.238281 C 71.332031 76.632812 71.683594 77.0625 71.992188 77.527344 C 72.304688 77.992188 72.566406 78.480469 72.78125 79 C 72.996094 79.515625 73.15625 80.046875 73.265625 80.59375 C 73.375 81.144531 73.429688 81.695312 73.429688 82.253906 Z M 73.429688 82.253906 "/><path style=" stroke:none;fill-rule:nonzero;fill:#a0a7aa;fill-opacity:1;" d="M 92.074219 22.53125 L 92.933594 21.457031 L 131.179688 52.734375 L 130.320312 53.808594 Z M 92.074219 22.53125 "/><g clip-rule="nonzero" clip-path="url(#2642b50a54)"><path style=" stroke:none;fill-rule:nonzero;fill:#89c661;fill-opacity:1;" d="M 139.078125 52.734375 C 139.078125 53.324219 139.019531 53.914062 138.902344 54.492188 C 138.789062 55.074219 138.617188 55.636719 138.390625 56.183594 C 138.164062 56.734375 137.886719 57.253906 137.554688 57.746094 C 137.226562 58.238281 136.851562 58.691406 136.433594 59.113281 C 136.015625 59.53125 135.558594 59.90625 135.066406 60.234375 C 134.574219 60.5625 134.054688 60.839844 133.507812 61.066406 C 132.960938 61.292969 132.398438 61.464844 131.816406 61.582031 C 131.234375 61.695312 130.648438 61.753906 130.054688 61.753906 C 129.464844 61.753906 128.878906 61.695312 128.296875 61.582031 C 127.714844 61.464844 127.152344 61.292969 126.605469 61.066406 C 126.058594 60.839844 125.539062 60.5625 125.042969 60.234375 C 124.550781 59.90625 124.097656 59.53125 123.679688 59.113281 C 123.257812 58.691406 122.886719 58.238281 122.554688 57.746094 C 122.226562 57.253906 121.949219 56.734375 121.722656 56.183594 C 121.496094 55.636719 121.324219 55.074219 121.210938 54.492188 C 121.09375 53.914062 121.035156 53.324219 121.035156 52.734375 C 121.035156 52.140625 121.09375 51.554688 121.210938 50.972656 C 121.324219 50.394531 121.496094 49.828125 121.722656 49.28125 C 121.949219 48.734375 122.226562 48.214844 122.554688 47.722656 C 122.886719 47.230469 123.257812 46.773438 123.679688 46.355469 C 124.097656 45.9375 124.550781 45.5625 125.042969 45.234375 C 125.539062 44.90625 126.058594 44.625 126.605469 44.398438 C 127.152344 44.171875 127.714844 44.003906 128.296875 43.886719 C 128.878906 43.769531 129.464844 43.714844 130.054688 43.714844 C 130.648438 43.714844 131.234375 43.769531 131.816406 43.886719 C 132.398438 44.003906 132.960938 44.171875 133.507812 44.398438 C 134.054688 44.625 134.574219 44.90625 135.066406 45.234375 C 135.558594 45.5625 136.015625 45.9375 136.433594 46.355469 C 136.851562 46.773438 137.226562 47.230469 137.554688 47.722656 C 137.886719 48.214844 138.164062 48.734375 138.390625 49.28125 C 138.617188 49.828125 138.789062 50.394531 138.902344 50.972656 C 139.019531 51.554688 139.078125 52.140625 139.078125 52.734375 Z M 139.078125 52.734375 "/></g><g clip-rule="nonzero" clip-path="url(#8826e8cc9b)"><path style=" stroke:none;fill-rule:nonzero;fill:#ed6b6b;fill-opacity:1;" d="M 105.496094 22.542969 C 105.496094 23.328125 105.417969 24.105469 105.265625 24.875 C 105.113281 25.644531 104.886719 26.394531 104.585938 27.117188 C 104.285156 27.84375 103.917969 28.53125 103.480469 29.183594 C 103.046875 29.835938 102.550781 30.441406 101.996094 30.996094 C 101.441406 31.550781 100.835938 32.046875 100.183594 32.480469 C 99.53125 32.917969 98.84375 33.285156 98.117188 33.585938 C 97.394531 33.886719 96.644531 34.113281 95.875 34.265625 C 95.105469 34.417969 94.328125 34.496094 93.542969 34.496094 C 92.761719 34.496094 91.984375 34.417969 91.214844 34.265625 C 90.445312 34.113281 89.695312 33.886719 88.972656 33.585938 C 88.246094 33.285156 87.558594 32.917969 86.90625 32.480469 C 86.253906 32.046875 85.648438 31.550781 85.09375 30.996094 C 84.539062 30.441406 84.042969 29.835938 83.605469 29.183594 C 83.171875 28.53125 82.804688 27.84375 82.503906 27.117188 C 82.203125 26.394531 81.976562 25.644531 81.824219 24.875 C 81.667969 24.105469 81.59375 23.328125 81.59375 22.542969 C 81.59375 21.757812 81.667969 20.980469 81.824219 20.210938 C 81.976562 19.441406 82.203125 18.695312 82.503906 17.96875 C 82.804688 17.246094 83.171875 16.558594 83.605469 15.90625 C 84.042969 15.25 84.539062 14.648438 85.09375 14.09375 C 85.648438 13.539062 86.253906 13.042969 86.90625 12.605469 C 87.558594 12.171875 88.246094 11.804688 88.972656 11.503906 C 89.695312 11.203125 90.445312 10.976562 91.214844 10.824219 C 91.984375 10.667969 92.761719 10.59375 93.542969 10.59375 C 94.328125 10.59375 95.105469 10.667969 95.875 10.824219 C 96.644531 10.976562 97.394531 11.203125 98.117188 11.503906 C 98.84375 11.804688 99.53125 12.171875 100.183594 12.605469 C 100.835938 13.042969 101.441406 13.539062 101.996094 14.09375 C 102.550781 14.648438 103.046875 15.25 103.480469 15.90625 C 103.917969 16.558594 104.285156 17.246094 104.585938 17.96875 C 104.886719 18.695312 105.113281 19.441406 105.265625 20.210938 C 105.417969 20.980469 105.496094 21.757812 105.496094 22.542969 Z M 105.496094 22.542969 "/></g></g></svg>