<svg xmlns="http://www.w3.org/2000/svg" xmlns:xlink="http://www.w3.org/1999/xlink" width="200" zoomAndPan="magnify" viewBox="0 0 150 149.999998" height="200" preserveAspectRatio="xMidYMid meet" version="1.2"><defs><clipPath id="2cfeaa3720"><path d="M 27 10.828125 L 123 10.828125 L 123 112 L 27 112 Z M 27 10.828125 "/></clipPath><clipPath id="8e6016483e"><path d="M 34 97 L 71 97 L 71 139.078125 L 34 139.078125 Z M 34 97 "/></clipPath><clipPath id="6482b9e6fd"><path d="M 79 97 L 116 97 L 116 139.078125 L 79 139.078125 Z M 79 97 "/></clipPath></defs><g id="ee4af59e22"><path style=" stroke:none;fill-rule:evenodd;fill:#fff7f3;fill-opacity:1;" d="M 94.101562 128.566406 C 93.425781 128.566406 92.824219 128.191406 92.601562 127.515625 L 88.019531 112.648438 C 87.71875 111.898438 88.171875 110.996094 88.996094 110.773438 C 89.746094 110.546875 90.648438 110.996094 90.875 111.746094 L 95.527344 126.613281 C 95.753906 127.441406 95.304688 128.265625 94.550781 128.492188 C 94.402344 128.566406 94.253906 128.566406 94.101562 128.566406 Z M 94.101562 128.566406 "/><path style=" stroke:none;fill-rule:evenodd;fill:#fff7f3;fill-opacity:1;" d="M 105.515625 125.039062 C 104.839844 125.039062 104.3125 124.585938 104.089844 123.988281 L 99.433594 109.121094 C 99.207031 108.292969 99.660156 107.46875 100.410156 107.242188 C 101.234375 106.941406 102.0625 107.394531 102.285156 108.21875 L 106.941406 123.085938 C 107.167969 123.835938 106.71875 124.664062 105.964844 124.964844 C 105.816406 124.964844 105.664062 125.039062 105.515625 125.039062 Z M 105.515625 125.039062 "/><path style=" stroke:none;fill-rule:evenodd;fill:#fff7f3;fill-opacity:1;" d="M 98.90625 124.0625 C 98.308594 124.0625 97.707031 123.6875 97.480469 123.011719 L 92.824219 108.144531 C 92.601562 107.316406 93.050781 106.492188 93.875 106.265625 C 94.628906 106.042969 95.453125 106.417969 95.753906 107.242188 L 100.335938 122.109375 C 100.636719 122.9375 100.183594 123.761719 99.359375 123.988281 C 99.207031 124.0625 99.058594 124.0625 98.90625 124.0625 Z M 98.90625 124.0625 "/><g clip-rule="nonzero" clip-path="url(#2cfeaa3720)"><path style=" stroke:none;fill-rule:evenodd;fill:#fff7f3;fill-opacity:1;" d="M 74.953125 111.671875 C 74.730469 111.671875 74.503906 111.597656 74.277344 111.449219 L 61.0625 104.164062 L 46.046875 102.285156 C 45.519531 102.285156 45.144531 101.910156 44.917969 101.460938 L 38.460938 87.792969 L 27.5 77.507812 C 27.125 77.132812 26.898438 76.605469 27.046875 76.082031 L 29.902344 61.289062 L 27.046875 46.496094 C 26.898438 45.972656 27.125 45.445312 27.5 45.070312 L 38.460938 34.78125 L 44.917969 21.117188 C 45.144531 20.667969 45.519531 20.289062 46.046875 20.214844 L 61.0625 18.414062 L 74.277344 11.128906 C 74.730469 10.828125 75.253906 10.828125 75.707031 11.128906 L 88.921875 18.414062 L 103.863281 20.214844 C 104.390625 20.289062 104.839844 20.667969 105.066406 21.117188 L 111.449219 34.78125 L 122.484375 45.070312 C 122.859375 45.445312 123.011719 45.972656 122.9375 46.496094 L 120.082031 61.289062 L 122.9375 76.082031 C 123.011719 76.605469 122.859375 77.132812 122.484375 77.507812 L 111.449219 87.792969 L 105.066406 101.460938 C 104.839844 101.910156 104.390625 102.285156 103.863281 102.285156 L 88.921875 104.164062 L 75.707031 111.449219 C 75.480469 111.597656 75.253906 111.671875 74.953125 111.671875 Z M 47.246094 99.433594 L 61.664062 101.234375 C 61.890625 101.234375 62.039062 101.3125 62.265625 101.386719 L 74.953125 108.445312 L 87.71875 101.386719 C 87.871094 101.3125 88.09375 101.234375 88.246094 101.234375 L 102.738281 99.433594 L 108.894531 86.292969 C 108.96875 86.066406 109.042969 85.917969 109.195312 85.84375 L 119.855469 75.855469 L 117.078125 61.589844 C 117.078125 61.363281 117.078125 61.214844 117.078125 60.988281 L 119.855469 46.722656 L 109.195312 36.734375 C 109.042969 36.660156 108.96875 36.511719 108.894531 36.285156 L 102.738281 23.144531 L 88.246094 21.34375 C 88.09375 21.265625 87.871094 21.265625 87.71875 21.117188 L 74.953125 14.132812 L 62.265625 21.117188 C 62.039062 21.265625 61.890625 21.265625 61.664062 21.34375 L 47.246094 23.144531 L 41.089844 36.285156 C 41.015625 36.511719 40.863281 36.660156 40.714844 36.734375 L 30.128906 46.722656 L 32.90625 60.988281 C 32.90625 61.214844 32.90625 61.363281 32.90625 61.589844 L 30.128906 75.855469 L 40.714844 85.84375 C 40.863281 85.917969 41.015625 86.066406 41.089844 86.292969 Z M 47.246094 99.433594 "/></g><g clip-rule="nonzero" clip-path="url(#8e6016483e)"><path style=" stroke:none;fill-rule:evenodd;fill:#fff7f3;fill-opacity:1;" d="M 59.109375 139.078125 C 58.660156 139.078125 58.285156 138.929688 57.984375 138.628906 L 48.675781 129.167969 L 36.210938 132.773438 C 35.683594 132.921875 35.082031 132.773438 34.707031 132.398438 C 34.332031 131.945312 34.183594 131.421875 34.332031 130.894531 L 44.167969 98.984375 C 44.320312 98.382812 44.84375 97.933594 45.445312 97.933594 C 46.121094 97.855469 46.648438 98.230469 46.945312 98.757812 L 47.246094 99.433594 L 61.664062 101.234375 C 61.890625 101.234375 62.039062 101.3125 62.265625 101.386719 L 69.324219 105.289062 C 69.925781 105.664062 70.222656 106.417969 70 107.09375 L 60.539062 138.027344 C 60.386719 138.480469 59.9375 138.855469 59.410156 139.003906 C 59.335938 139.003906 59.1875 139.078125 59.109375 139.078125 Z M 49.125 126.015625 C 49.5 126.015625 49.875 126.164062 50.175781 126.464844 L 58.359375 134.726562 L 66.769531 107.394531 L 61.0625 104.164062 L 46.269531 102.363281 L 38.085938 129.09375 L 48.675781 126.015625 C 48.824219 126.015625 48.972656 126.015625 49.125 126.015625 Z M 49.125 126.015625 "/></g><g clip-rule="nonzero" clip-path="url(#6482b9e6fd)"><path style=" stroke:none;fill-rule:evenodd;fill:#fff7f3;fill-opacity:1;" d="M 90.875 139.078125 C 90.722656 139.078125 90.648438 139.003906 90.496094 139.003906 C 89.972656 138.855469 89.597656 138.480469 89.445312 138.027344 L 79.910156 107.09375 C 79.761719 106.417969 80.0625 105.664062 80.660156 105.289062 L 87.71875 101.386719 C 87.871094 101.3125 88.09375 101.234375 88.246094 101.234375 L 102.738281 99.433594 L 103.039062 98.757812 C 103.261719 98.230469 103.863281 97.855469 104.464844 97.933594 C 105.066406 97.933594 105.589844 98.382812 105.816406 98.984375 L 115.578125 130.746094 C 115.652344 130.894531 115.652344 131.121094 115.652344 131.347656 C 115.652344 132.171875 114.976562 132.847656 114.152344 132.847656 C 114 132.847656 113.851562 132.773438 113.773438 132.773438 L 101.3125 129.167969 L 91.925781 138.628906 C 91.625 138.929688 91.25 139.078125 90.875 139.078125 Z M 83.140625 107.394531 L 91.550781 134.726562 L 99.808594 126.464844 C 100.183594 126.015625 100.710938 125.863281 101.234375 126.015625 L 111.898438 129.09375 L 103.714844 102.363281 L 88.921875 104.164062 Z M 83.140625 107.394531 "/></g><path style=" stroke:none;fill-rule:evenodd;fill:#fff7f3;fill-opacity:1;" d="M 55.507812 128.566406 C 55.355469 128.566406 55.207031 128.566406 55.054688 128.492188 C 54.230469 128.265625 53.855469 127.441406 54.082031 126.613281 L 58.734375 111.746094 C 58.960938 110.996094 59.785156 110.546875 60.613281 110.773438 C 61.363281 110.996094 61.8125 111.898438 61.589844 112.648438 L 56.933594 127.515625 C 56.707031 128.191406 56.109375 128.566406 55.507812 128.566406 Z M 55.507812 128.566406 "/><path style=" stroke:none;fill-rule:evenodd;fill:#fff7f3;fill-opacity:1;" d="M 44.09375 125.039062 C 43.945312 125.039062 43.792969 124.964844 43.644531 124.964844 C 42.816406 124.664062 42.367188 123.835938 42.59375 123.085938 L 47.246094 108.21875 C 47.546875 107.394531 48.375 106.941406 49.125 107.242188 C 49.949219 107.46875 50.402344 108.292969 50.175781 109.121094 L 45.519531 123.988281 C 45.296875 124.585938 44.695312 125.039062 44.09375 125.039062 Z M 44.09375 125.039062 "/><path style=" stroke:none;fill-rule:evenodd;fill:#fff7f3;fill-opacity:1;" d="M 50.625 124.0625 C 50.476562 124.0625 50.324219 124.0625 50.175781 123.988281 C 49.425781 123.761719 48.972656 122.9375 49.199219 122.109375 L 53.855469 107.242188 C 54.082031 106.492188 54.90625 106.042969 55.730469 106.265625 C 56.558594 106.492188 56.933594 107.316406 56.707031 108.144531 L 52.054688 123.011719 C 51.902344 123.6875 51.300781 124.0625 50.625 124.0625 Z M 50.625 124.0625 "/><path style=" stroke:none;fill-rule:evenodd;fill:#fff7f3;fill-opacity:1;" d="M 62.714844 58.136719 C 62.488281 58.136719 62.339844 58.058594 62.113281 57.984375 C 61.738281 57.835938 61.4375 57.535156 61.289062 57.234375 C 59.9375 53.78125 59.109375 46.195312 65.71875 41.617188 C 66.546875 40.640625 69.546875 37.261719 74.730469 37.261719 C 76.90625 37.261719 79.160156 37.9375 81.488281 39.136719 C 81.488281 39.136719 81.5625 39.214844 81.636719 39.214844 C 81.710938 39.289062 82.765625 39.964844 84.640625 39.964844 C 85.316406 39.964844 86.066406 39.890625 86.820312 39.664062 C 87.570312 39.4375 88.320312 39.890625 88.621094 40.566406 C 88.921875 41.464844 89.144531 43.191406 88.09375 44.917969 C 89.296875 46.796875 91.171875 51 88.695312 56.785156 C 88.46875 57.308594 87.945312 57.683594 87.417969 57.683594 C 86.820312 57.683594 86.292969 57.382812 85.992188 56.933594 C 85.242188 55.433594 82.613281 51.675781 79.984375 51.675781 C 79.683594 51.675781 79.386719 51.675781 79.160156 51.753906 C 79.085938 51.828125 79.007812 51.828125 78.859375 51.828125 C 78.859375 51.828125 77.433594 52.128906 75.707031 52.128906 C 73.378906 52.128906 71.574219 51.675781 70.222656 50.925781 C 69.097656 53.105469 66.84375 56.484375 63.316406 57.984375 C 63.089844 58.058594 62.941406 58.136719 62.714844 58.136719 Z M 74.730469 40.265625 C 70.449219 40.265625 68.121094 43.492188 68.046875 43.566406 C 67.898438 43.71875 67.746094 43.867188 67.597656 44.019531 C 62.867188 47.097656 63.089844 51.902344 63.617188 54.378906 C 66.769531 52.203125 68.195312 48.074219 68.195312 48 C 68.421875 47.472656 68.871094 47.097656 69.472656 47.023438 C 70 46.945312 70.601562 47.171875 70.898438 47.621094 C 71.5 48.597656 73.304688 49.125 75.707031 49.125 C 76.90625 49.125 77.957031 48.972656 78.257812 48.898438 C 78.859375 48.75 79.460938 48.675781 79.984375 48.675781 C 82.839844 48.675781 85.242188 50.777344 86.742188 52.730469 C 87.417969 48.523438 85.242188 46.046875 85.089844 45.894531 C 84.640625 45.371094 84.640625 44.46875 85.167969 43.867188 C 85.46875 43.566406 85.617188 43.269531 85.765625 42.96875 C 85.390625 42.96875 85.015625 42.96875 84.640625 42.96875 C 82.089844 42.96875 80.4375 42.066406 79.984375 41.765625 C 78.109375 40.789062 76.382812 40.265625 74.730469 40.265625 Z M 74.730469 40.265625 "/><path style=" stroke:none;fill-rule:evenodd;fill:#fff7f3;fill-opacity:1;" d="M 69.324219 87.195312 C 68.871094 87.195312 68.496094 87.042969 68.195312 86.894531 C 67.222656 86.441406 66.84375 85.542969 66.769531 85.242188 L 64.21875 76.683594 C 63.992188 75.929688 64.441406 75.105469 65.191406 74.804688 C 66.019531 74.578125 66.84375 75.03125 67.070312 75.855469 L 69.546875 84.039062 L 73.902344 79.761719 C 74.503906 79.160156 75.480469 79.160156 76.007812 79.761719 C 76.605469 80.285156 76.605469 81.261719 76.007812 81.863281 L 71.5 86.367188 C 71.425781 86.519531 71.277344 86.59375 71.125 86.667969 C 70.449219 87.042969 69.847656 87.195312 69.324219 87.195312 Z M 69.324219 87.195312 "/><path style=" stroke:none;fill-rule:evenodd;fill:#fff7f3;fill-opacity:1;" d="M 74.953125 82.3125 C 74.503906 82.3125 74.054688 82.089844 73.828125 81.710938 L 70.300781 77.433594 C 70.148438 77.207031 70 76.832031 70 76.53125 L 70 72.925781 C 70 72.101562 70.675781 71.425781 71.5 71.425781 C 72.328125 71.425781 73.003906 72.101562 73.003906 72.925781 L 73.003906 75.929688 L 74.953125 78.410156 L 76.980469 75.929688 L 76.980469 72.851562 C 76.980469 72.027344 77.65625 71.351562 78.484375 71.351562 C 79.308594 71.351562 79.984375 72.027344 79.984375 72.851562 L 79.984375 76.53125 C 79.984375 76.832031 79.835938 77.207031 79.609375 77.433594 L 76.15625 81.710938 C 75.855469 82.089844 75.40625 82.3125 74.953125 82.3125 Z M 74.953125 82.3125 "/><path style=" stroke:none;fill-rule:evenodd;fill:#fff7f3;fill-opacity:1;" d="M 80.585938 87.195312 C 80.136719 87.195312 79.535156 87.042969 78.785156 86.667969 C 78.710938 86.59375 78.558594 86.519531 78.410156 86.367188 L 73.902344 81.863281 C 73.304688 81.261719 73.304688 80.285156 73.902344 79.761719 C 74.503906 79.160156 75.480469 79.160156 76.007812 79.761719 L 80.359375 84.039062 L 82.839844 75.855469 C 83.0625 75.03125 83.890625 74.578125 84.714844 74.804688 C 85.542969 75.105469 85.992188 75.929688 85.691406 76.683594 L 83.140625 85.242188 C 83.0625 85.542969 82.765625 86.441406 81.710938 86.894531 C 81.414062 87.042969 81.035156 87.195312 80.585938 87.195312 Z M 80.585938 87.195312 "/><path style=" stroke:none;fill-rule:evenodd;fill:#fff7f3;fill-opacity:1;" d="M 74.503906 74.878906 C 67.222656 74.878906 63.839844 68.496094 62.867188 64.515625 C 61.363281 63.691406 60.6875 62.640625 60.386719 61.738281 C 59.636719 59.335938 60.914062 56.859375 61.515625 55.882812 C 61.964844 55.132812 62.867188 54.90625 63.542969 55.355469 C 64.292969 55.808594 64.515625 56.707031 64.066406 57.382812 C 63.464844 58.359375 62.941406 59.785156 63.242188 60.839844 C 63.316406 60.988281 63.542969 61.664062 64.742188 62.113281 C 65.191406 62.265625 65.570312 62.714844 65.644531 63.242188 C 65.71875 63.617188 67.371094 72.101562 74.804688 71.875 C 74.878906 71.875 74.878906 71.875 74.953125 71.875 C 78.035156 71.953125 80.511719 70.601562 82.3125 67.746094 C 83.738281 65.492188 84.117188 63.242188 84.117188 63.242188 C 84.265625 62.714844 84.566406 62.265625 85.089844 62.113281 C 85.84375 61.8125 86.367188 61.289062 86.59375 60.6875 C 87.042969 59.335938 86.292969 57.460938 85.992188 56.933594 C 85.617188 56.183594 85.84375 55.28125 86.59375 54.90625 C 87.34375 54.457031 88.246094 54.757812 88.621094 55.507812 C 88.847656 55.808594 90.421875 58.886719 89.445312 61.738281 C 88.996094 62.941406 88.171875 63.839844 86.96875 64.515625 C 85.917969 68.574219 82.464844 75.105469 74.878906 74.878906 C 74.730469 74.878906 74.65625 74.878906 74.503906 74.878906 Z M 74.503906 74.878906 "/><path style=" stroke:none;fill-rule:evenodd;fill:#fff7f3;fill-opacity:1;" d="M 74.953125 98.15625 C 54.679688 98.15625 38.160156 81.636719 38.160156 61.289062 C 38.160156 40.941406 54.679688 24.421875 74.953125 24.421875 C 95.304688 24.421875 111.824219 40.941406 111.824219 61.289062 C 111.824219 81.636719 95.304688 98.15625 74.953125 98.15625 Z M 74.953125 27.425781 C 56.332031 27.425781 41.164062 42.59375 41.164062 61.289062 C 41.164062 79.984375 56.332031 95.152344 74.953125 95.152344 C 93.652344 95.152344 108.820312 79.984375 108.820312 61.289062 C 108.820312 42.59375 93.652344 27.425781 74.953125 27.425781 Z M 74.953125 27.425781 "/><path style=" stroke:none;fill-rule:evenodd;fill:#fff7f3;fill-opacity:1;" d="M 70.074219 97.78125 C 70 97.78125 69.925781 97.78125 69.847656 97.78125 C 69.097656 97.707031 68.496094 96.878906 68.574219 96.128906 L 70.300781 83.816406 C 70.375 82.988281 71.125 82.386719 71.953125 82.539062 C 72.777344 82.613281 73.378906 83.363281 73.226562 84.191406 L 71.574219 96.503906 C 71.5 97.253906 70.824219 97.78125 70.074219 97.78125 Z M 70.074219 97.78125 "/><path style=" stroke:none;fill-rule:evenodd;fill:#fff7f3;fill-opacity:1;" d="M 79.835938 97.78125 C 79.160156 97.78125 78.484375 97.253906 78.410156 96.503906 L 76.683594 84.191406 C 76.605469 83.441406 77.207031 82.613281 78.035156 82.539062 C 78.785156 82.464844 79.609375 82.988281 79.683594 83.816406 L 81.335938 96.128906 C 81.488281 96.878906 80.886719 97.707031 80.0625 97.78125 C 79.984375 97.78125 79.910156 97.78125 79.835938 97.78125 Z M 79.835938 97.78125 "/><path style=" stroke:none;fill-rule:evenodd;fill:#fff7f3;fill-opacity:1;" d="M 74.953125 98.15625 C 67.070312 98.15625 59.488281 95.679688 53.105469 90.949219 C 52.652344 90.648438 52.429688 90.121094 52.503906 89.523438 C 53.480469 81.035156 59.863281 74.65625 67.296875 74.65625 L 71.5 74.65625 C 72.25 74.65625 72.925781 75.179688 73.003906 75.929688 L 74.953125 78.410156 L 76.980469 75.929688 C 77.058594 75.179688 77.65625 74.65625 78.484375 74.65625 L 82.613281 74.65625 C 90.046875 74.65625 96.429688 81.035156 97.480469 89.523438 C 97.554688 90.121094 97.332031 90.648438 96.878906 90.949219 C 90.496094 95.679688 82.914062 98.15625 74.953125 98.15625 Z M 55.582031 89.070312 C 61.289062 93.050781 67.972656 95.152344 74.953125 95.152344 C 82.011719 95.152344 88.621094 93.050781 94.328125 89.070312 C 93.199219 82.464844 88.320312 77.65625 82.613281 77.65625 L 79.460938 77.65625 L 76.15625 81.710938 C 75.855469 82.089844 75.40625 82.3125 74.953125 82.3125 C 74.503906 82.3125 74.128906 82.089844 73.828125 81.710938 L 70.523438 77.65625 L 67.296875 77.65625 C 61.664062 77.65625 56.707031 82.464844 55.582031 89.070312 Z M 55.582031 89.070312 "/></g></svg>