<svg xmlns="http://www.w3.org/2000/svg" xmlns:xlink="http://www.w3.org/1999/xlink" width="200" zoomAndPan="magnify" viewBox="0 0 150 149.999998" height="200" preserveAspectRatio="xMidYMid meet" version="1.2"><defs><clipPath id="4d8e33f8ce"><path d="M 42 10.589844 L 108 10.589844 L 108 76 L 42 76 Z M 42 10.589844 "/></clipPath><clipPath id="97f8be6d99"><path d="M 23 80 L 127 80 L 127 139.589844 L 23 139.589844 Z M 23 80 "/></clipPath></defs><g id="dae9dc2712"><g clip-rule="nonzero" clip-path="url(#4d8e33f8ce)"><path style=" stroke:none;fill-rule:nonzero;fill:#fff7f3;fill-opacity:1;" d="M 74.984375 75.195312 C 76.042969 75.195312 77.101562 75.144531 78.152344 75.039062 C 79.207031 74.9375 80.253906 74.78125 81.289062 74.574219 C 82.328125 74.367188 83.355469 74.109375 84.367188 73.804688 C 85.378906 73.496094 86.375 73.140625 87.351562 72.734375 C 88.332031 72.328125 89.285156 71.878906 90.21875 71.378906 C 91.152344 70.878906 92.058594 70.335938 92.941406 69.75 C 93.820312 69.160156 94.667969 68.53125 95.488281 67.859375 C 96.304688 67.1875 97.089844 66.476562 97.835938 65.730469 C 98.585938 64.980469 99.296875 64.199219 99.96875 63.378906 C 100.636719 62.5625 101.269531 61.710938 101.855469 60.832031 C 102.445312 59.953125 102.988281 59.046875 103.488281 58.113281 C 103.984375 57.179688 104.4375 56.222656 104.84375 55.246094 C 105.246094 54.269531 105.605469 53.273438 105.910156 52.257812 C 106.21875 51.246094 106.476562 50.222656 106.679688 49.183594 C 106.886719 48.144531 107.042969 47.101562 107.148438 46.046875 C 107.25 44.992188 107.300781 43.9375 107.300781 42.878906 C 107.300781 41.820312 107.25 40.765625 107.148438 39.710938 C 107.042969 38.65625 106.886719 37.613281 106.679688 36.574219 C 106.476562 35.535156 106.21875 34.511719 105.910156 33.5 C 105.605469 32.484375 105.246094 31.488281 104.84375 30.511719 C 104.4375 29.535156 103.984375 28.578125 103.488281 27.644531 C 102.988281 26.710938 102.445312 25.804688 101.855469 24.925781 C 101.269531 24.046875 100.636719 23.195312 99.96875 22.378906 C 99.296875 21.558594 98.585938 20.777344 97.835938 20.027344 C 97.089844 19.28125 96.304688 18.570312 95.488281 17.898438 C 94.667969 17.226562 93.820312 16.597656 92.941406 16.007812 C 92.058594 15.421875 91.152344 14.878906 90.21875 14.378906 C 89.285156 13.878906 88.332031 13.429688 87.355469 13.023438 C 86.375 12.617188 85.378906 12.261719 84.367188 11.953125 C 83.355469 11.648438 82.328125 11.390625 81.292969 11.183594 C 80.253906 10.976562 79.207031 10.820312 78.152344 10.71875 C 77.101562 10.613281 76.046875 10.5625 74.988281 10.5625 C 73.929688 10.5625 72.871094 10.613281 71.820312 10.71875 C 70.765625 10.820312 69.71875 10.976562 68.683594 11.183594 C 67.644531 11.390625 66.617188 11.648438 65.605469 11.953125 C 64.59375 12.261719 63.597656 12.617188 62.621094 13.023438 C 61.640625 13.425781 60.6875 13.878906 59.753906 14.378906 C 58.820312 14.878906 57.914062 15.421875 57.03125 16.007812 C 56.152344 16.597656 55.304688 17.226562 54.484375 17.898438 C 53.667969 18.570312 52.882812 19.277344 52.136719 20.027344 C 51.386719 20.777344 50.675781 21.558594 50.007812 22.378906 C 49.335938 23.195312 48.703125 24.042969 48.117188 24.925781 C 47.527344 25.804688 46.984375 26.710938 46.484375 27.644531 C 45.988281 28.578125 45.535156 29.535156 45.128906 30.511719 C 44.726562 31.488281 44.367188 32.484375 44.0625 33.496094 C 43.753906 34.511719 43.496094 35.535156 43.292969 36.574219 C 43.085938 37.613281 42.929688 38.65625 42.824219 39.710938 C 42.722656 40.765625 42.671875 41.820312 42.671875 42.878906 C 42.671875 43.9375 42.722656 44.992188 42.828125 46.042969 C 42.933594 47.097656 43.089844 48.144531 43.296875 49.179688 C 43.503906 50.21875 43.761719 51.242188 44.070312 52.253906 C 44.378906 53.265625 44.734375 54.261719 45.140625 55.238281 C 45.542969 56.21875 45.996094 57.171875 46.496094 58.105469 C 46.996094 59.039062 47.539062 59.945312 48.128906 60.824219 C 48.714844 61.703125 49.34375 62.550781 50.015625 63.371094 C 50.6875 64.1875 51.398438 64.972656 52.144531 65.71875 C 52.894531 66.46875 53.675781 67.175781 54.496094 67.847656 C 55.3125 68.519531 56.160156 69.148438 57.039062 69.738281 C 57.921875 70.324219 58.828125 70.871094 59.757812 71.367188 C 60.691406 71.867188 61.648438 72.320312 62.625 72.726562 C 63.601562 73.128906 64.597656 73.488281 65.609375 73.796875 C 66.621094 74.101562 67.648438 74.359375 68.683594 74.566406 C 69.722656 74.773438 70.765625 74.929688 71.820312 75.035156 C 72.871094 75.140625 73.929688 75.195312 74.984375 75.195312 Z M 74.984375 16.152344 C 75.863281 16.152344 76.734375 16.195312 77.605469 16.28125 C 78.476562 16.367188 79.34375 16.496094 80.199219 16.664062 C 81.058594 16.835938 81.90625 17.046875 82.746094 17.300781 C 83.582031 17.554688 84.40625 17.851562 85.214844 18.1875 C 86.023438 18.519531 86.8125 18.894531 87.585938 19.308594 C 88.359375 19.71875 89.109375 20.167969 89.835938 20.65625 C 90.5625 21.140625 91.265625 21.664062 91.941406 22.21875 C 92.621094 22.773438 93.265625 23.359375 93.886719 23.980469 C 94.503906 24.597656 95.09375 25.246094 95.648438 25.921875 C 96.203125 26.601562 96.722656 27.300781 97.210938 28.03125 C 97.695312 28.757812 98.144531 29.507812 98.558594 30.28125 C 98.972656 31.050781 99.34375 31.84375 99.679688 32.652344 C 100.015625 33.460938 100.308594 34.28125 100.5625 35.121094 C 100.816406 35.957031 101.03125 36.804688 101.203125 37.664062 C 101.371094 38.523438 101.5 39.386719 101.585938 40.261719 C 101.671875 41.132812 101.714844 42.003906 101.714844 42.878906 C 101.714844 43.753906 101.671875 44.628906 101.585938 45.5 C 101.5 46.371094 101.371094 47.234375 101.203125 48.09375 C 101.03125 48.953125 100.816406 49.800781 100.5625 50.636719 C 100.308594 51.476562 100.015625 52.300781 99.679688 53.109375 C 99.34375 53.917969 98.972656 54.707031 98.558594 55.480469 C 98.144531 56.25 97.695312 57 97.210938 57.730469 C 96.722656 58.457031 96.203125 59.160156 95.648438 59.835938 C 95.09375 60.511719 94.503906 61.160156 93.886719 61.78125 C 93.265625 62.398438 92.621094 62.984375 91.941406 63.539062 C 91.265625 64.097656 90.5625 64.617188 89.835938 65.101562 C 89.109375 65.589844 88.359375 66.039062 87.585938 66.453125 C 86.8125 66.863281 86.023438 67.238281 85.214844 67.574219 C 84.40625 67.910156 83.582031 68.203125 82.746094 68.457031 C 81.90625 68.710938 81.058594 68.921875 80.199219 69.09375 C 79.34375 69.265625 78.476562 69.394531 77.605469 69.480469 C 76.734375 69.566406 75.863281 69.609375 74.984375 69.609375 C 74.109375 69.609375 73.238281 69.566406 72.367188 69.480469 C 71.496094 69.394531 70.628906 69.265625 69.773438 69.09375 C 68.914062 68.921875 68.066406 68.710938 67.226562 68.457031 C 66.390625 68.203125 65.566406 67.90625 64.757812 67.574219 C 63.949219 67.238281 63.160156 66.863281 62.386719 66.449219 C 61.613281 66.039062 60.863281 65.589844 60.136719 65.101562 C 59.410156 64.617188 58.707031 64.09375 58.03125 63.539062 C 57.351562 62.984375 56.707031 62.398438 56.085938 61.777344 C 55.46875 61.160156 54.878906 60.511719 54.324219 59.835938 C 53.769531 59.15625 53.25 58.457031 52.761719 57.726562 C 52.277344 57 51.828125 56.25 51.414062 55.476562 C 51 54.707031 50.628906 53.914062 50.292969 53.105469 C 49.957031 52.296875 49.664062 51.476562 49.410156 50.636719 C 49.15625 49.800781 48.941406 48.949219 48.773438 48.09375 C 48.601562 47.234375 48.472656 46.367188 48.386719 45.496094 C 48.300781 44.625 48.257812 43.753906 48.257812 42.878906 C 48.261719 42.003906 48.304688 41.128906 48.390625 40.257812 C 48.476562 39.386719 48.605469 38.523438 48.777344 37.664062 C 48.949219 36.808594 49.164062 35.960938 49.417969 35.121094 C 49.671875 34.285156 49.964844 33.464844 50.300781 32.65625 C 50.636719 31.847656 51.011719 31.058594 51.425781 30.285156 C 51.835938 29.511719 52.285156 28.765625 52.773438 28.035156 C 53.257812 27.308594 53.78125 26.605469 54.335938 25.929688 C 54.890625 25.253906 55.476562 24.605469 56.097656 23.988281 C 56.714844 23.371094 57.363281 22.78125 58.039062 22.226562 C 58.714844 21.671875 59.417969 21.152344 60.144531 20.664062 C 60.871094 20.179688 61.621094 19.730469 62.394531 19.316406 C 63.164062 18.902344 63.953125 18.53125 64.761719 18.195312 C 65.570312 17.859375 66.394531 17.5625 67.230469 17.308594 C 68.070312 17.054688 68.917969 16.839844 69.773438 16.671875 C 70.632812 16.5 71.496094 16.371094 72.367188 16.28125 C 73.238281 16.195312 74.109375 16.152344 74.984375 16.152344 Z M 74.984375 16.152344 "/></g><g clip-rule="nonzero" clip-path="url(#97f8be6d99)"><path style=" stroke:none;fill-rule:nonzero;fill:#fff7f3;fill-opacity:1;" d="M 74.984375 80.34375 C 73.289062 80.347656 71.597656 80.433594 69.910156 80.601562 C 68.222656 80.769531 66.546875 81.019531 64.882812 81.351562 C 63.21875 81.683594 61.574219 82.09375 59.953125 82.589844 C 58.328125 83.082031 56.734375 83.65625 55.167969 84.304688 C 53.601562 84.953125 52.070312 85.679688 50.574219 86.480469 C 49.078125 87.28125 47.625 88.152344 46.214844 89.09375 C 44.804688 90.039062 43.445312 91.046875 42.132812 92.125 C 40.820312 93.199219 39.566406 94.335938 38.367188 95.539062 C 37.167969 96.738281 36.027344 97.992188 34.953125 99.304688 C 33.875 100.613281 32.867188 101.976562 31.921875 103.386719 C 30.980469 104.796875 30.109375 106.25 29.308594 107.746094 C 28.507812 109.238281 27.78125 110.773438 27.132812 112.339844 C 26.484375 113.90625 25.910156 115.5 25.417969 117.125 C 24.925781 118.746094 24.511719 120.390625 24.179688 122.054688 C 23.847656 123.714844 23.597656 125.390625 23.429688 127.082031 C 23.261719 128.769531 23.175781 130.460938 23.171875 132.15625 C 23.171875 132.632812 23.21875 133.105469 23.3125 133.570312 C 23.40625 134.039062 23.542969 134.492188 23.722656 134.933594 C 23.90625 135.371094 24.128906 135.789062 24.394531 136.1875 C 24.660156 136.582031 24.960938 136.949219 25.296875 137.285156 C 25.632812 137.621094 26 137.921875 26.394531 138.1875 C 26.789062 138.449219 27.207031 138.671875 27.648438 138.855469 C 28.089844 139.039062 28.542969 139.175781 29.007812 139.269531 C 29.476562 139.359375 29.949219 139.40625 30.421875 139.40625 L 119.542969 139.40625 C 120.683594 139.402344 121.761719 139.148438 122.78125 138.636719 C 123.800781 138.128906 124.652344 137.421875 125.339844 136.511719 C 126.3125 135.222656 126.800781 133.769531 126.796875 132.15625 C 126.792969 130.460938 126.707031 128.765625 126.539062 127.078125 C 126.371094 125.390625 126.121094 123.714844 125.789062 122.050781 C 125.457031 120.390625 125.042969 118.746094 124.550781 117.121094 C 124.058594 115.5 123.484375 113.90625 122.835938 112.339844 C 122.183594 110.769531 121.460938 109.238281 120.660156 107.746094 C 119.859375 106.25 118.988281 104.796875 118.046875 103.386719 C 117.101562 101.976562 116.09375 100.613281 115.015625 99.304688 C 113.941406 97.992188 112.804688 96.738281 111.601562 95.539062 C 110.402344 94.339844 109.148438 93.199219 107.835938 92.125 C 106.527344 91.046875 105.164062 90.039062 103.753906 89.09375 C 102.34375 88.152344 100.894531 87.28125 99.398438 86.480469 C 97.902344 85.679688 96.371094 84.957031 94.804688 84.304688 C 93.238281 83.65625 91.640625 83.082031 90.019531 82.589844 C 88.394531 82.097656 86.753906 81.683594 85.089844 81.351562 C 83.425781 81.019531 81.75 80.769531 80.0625 80.601562 C 78.375 80.433594 76.683594 80.347656 74.984375 80.34375 Z M 120.878906 133.15625 C 120.546875 133.601562 120.101562 133.820312 119.546875 133.816406 L 30.425781 133.816406 C 30.132812 133.820312 29.859375 133.746094 29.605469 133.601562 C 29.347656 133.457031 29.148438 133.257812 29 133.007812 C 28.839844 132.746094 28.761719 132.460938 28.765625 132.15625 C 28.769531 130.644531 28.851562 129.140625 29.003906 127.636719 C 29.160156 126.136719 29.386719 124.644531 29.6875 123.164062 C 29.984375 121.6875 30.359375 120.222656 30.800781 118.78125 C 31.246094 117.335938 31.757812 115.917969 32.339844 114.527344 C 32.921875 113.132812 33.570312 111.773438 34.285156 110.441406 C 35 109.113281 35.78125 107.820312 36.621094 106.570312 C 37.464844 105.316406 38.367188 104.105469 39.328125 102.941406 C 40.285156 101.777344 41.300781 100.660156 42.371094 99.597656 C 43.441406 98.53125 44.5625 97.519531 45.730469 96.566406 C 46.898438 95.609375 48.113281 94.714844 49.367188 93.875 C 50.625 93.039062 51.917969 92.265625 53.253906 91.554688 C 54.585938 90.847656 55.949219 90.203125 57.34375 89.628906 C 58.738281 89.050781 60.160156 88.542969 61.605469 88.105469 C 63.050781 87.667969 64.511719 87.304688 65.996094 87.011719 C 67.476562 86.714844 68.96875 86.496094 70.46875 86.347656 C 71.972656 86.199219 73.476562 86.128906 74.988281 86.128906 C 76.5 86.128906 78.003906 86.199219 79.507812 86.347656 C 81.007812 86.496094 82.5 86.714844 83.980469 87.011719 C 85.464844 87.304688 86.925781 87.667969 88.371094 88.105469 C 89.816406 88.542969 91.238281 89.050781 92.632812 89.628906 C 94.027344 90.203125 95.390625 90.847656 96.722656 91.554688 C 98.058594 92.265625 99.351562 93.039062 100.609375 93.875 C 101.863281 94.714844 103.078125 95.609375 104.246094 96.566406 C 105.414062 97.519531 106.535156 98.53125 107.605469 99.597656 C 108.675781 100.660156 109.6875 101.777344 110.648438 102.941406 C 111.609375 104.105469 112.511719 105.316406 113.355469 106.570312 C 114.195312 107.820312 114.976562 109.113281 115.691406 110.441406 C 116.40625 111.773438 117.054688 113.132812 117.636719 114.527344 C 118.21875 115.917969 118.730469 117.335938 119.175781 118.78125 C 119.617188 120.222656 119.992188 121.6875 120.289062 123.164062 C 120.589844 124.644531 120.816406 126.136719 120.972656 127.636719 C 121.125 129.140625 121.207031 130.644531 121.210938 132.15625 C 121.210938 132.527344 121.097656 132.859375 120.875 133.152344 Z M 120.878906 133.15625 "/></g></g></svg>