<svg xmlns="http://www.w3.org/2000/svg" xmlns:xlink="http://www.w3.org/1999/xlink" width="200" zoomAndPan="magnify" viewBox="0 0 150 149.999998" height="200" preserveAspectRatio="xMidYMid meet" version="1.2"><defs><clipPath id="f7731b9093"><path d="M 27 16 L 134 16 L 134 139.078125 L 27 139.078125 Z M 27 16 "/></clipPath></defs><g id="a5b5174b43"><g clip-rule="nonzero" clip-path="url(#f7731b9093)"><path style=" stroke:none;fill-rule:nonzero;fill:#fff7f3;fill-opacity:1;" d="M 115.871094 34.414062 C 114.648438 33.195312 113.375 32.03125 112.054688 30.917969 C 110.734375 29.808594 109.371094 28.753906 107.960938 27.757812 C 106.550781 26.761719 105.101562 25.828125 103.613281 24.953125 C 102.125 24.078125 100.601562 23.269531 99.046875 22.523438 C 97.488281 21.777344 95.902344 21.101562 94.289062 20.488281 C 92.675781 19.878906 91.039062 19.335938 89.378906 18.859375 C 87.71875 18.386719 86.042969 17.984375 84.347656 17.652344 C 82.652344 17.320312 80.949219 17.0625 79.234375 16.871094 C 77.519531 16.683594 75.796875 16.570312 74.070312 16.527344 C 72.347656 16.484375 70.621094 16.511719 68.898438 16.613281 C 67.175781 16.71875 65.460938 16.890625 63.753906 17.140625 C 62.042969 17.386719 60.347656 17.707031 58.667969 18.09375 C 56.988281 18.484375 55.324219 18.945312 53.683594 19.476562 C 52.039062 20.007812 50.421875 20.605469 48.832031 21.273438 C 47.238281 21.9375 45.675781 22.671875 44.148438 23.46875 C 42.617188 24.269531 41.125 25.128906 39.664062 26.054688 L 40.476562 22.003906 C 40.53125 21.703125 40.558594 21.398438 40.554688 21.089844 C 40.550781 20.785156 40.519531 20.480469 40.457031 20.179688 C 40.394531 19.878906 40.304688 19.589844 40.183594 19.304688 C 40.0625 19.023438 39.917969 18.753906 39.746094 18.5 C 39.574219 18.246094 39.378906 18.011719 39.160156 17.792969 C 38.945312 17.578125 38.707031 17.386719 38.453125 17.214844 C 38.195312 17.046875 37.925781 16.902344 37.644531 16.785156 C 37.359375 16.667969 37.066406 16.578125 36.765625 16.519531 C 36.464844 16.457031 36.160156 16.425781 35.855469 16.425781 C 35.546875 16.425781 35.242188 16.453125 34.941406 16.511719 C 34.640625 16.570312 34.347656 16.660156 34.0625 16.773438 C 33.78125 16.890625 33.507812 17.03125 33.253906 17.199219 C 32.996094 17.367188 32.757812 17.558594 32.539062 17.773438 C 32.320312 17.988281 32.125 18.222656 31.949219 18.476562 C 31.777344 18.730469 31.628906 19 31.507812 19.28125 C 31.386719 19.5625 31.292969 19.851562 31.230469 20.152344 L 27.898438 36.820312 C 27.695312 38.101562 27.949219 39.285156 28.664062 40.367188 C 29.386719 41.410156 30.363281 42.078125 31.597656 42.371094 L 48.265625 45.703125 C 48.566406 45.757812 48.871094 45.785156 49.175781 45.78125 C 49.484375 45.777344 49.789062 45.746094 50.085938 45.683594 C 50.386719 45.621094 50.679688 45.527344 50.960938 45.410156 C 51.246094 45.289062 51.511719 45.144531 51.765625 44.972656 C 52.019531 44.800781 52.257812 44.605469 52.472656 44.386719 C 52.6875 44.167969 52.878906 43.933594 53.050781 43.675781 C 53.21875 43.421875 53.363281 43.152344 53.480469 42.867188 C 53.597656 42.585938 53.6875 42.292969 53.746094 41.992188 C 53.808594 41.691406 53.839844 41.386719 53.839844 41.082031 C 53.839844 40.773438 53.8125 40.46875 53.753906 40.167969 C 53.695312 39.867188 53.609375 39.574219 53.492188 39.292969 C 53.375 39.007812 53.234375 38.738281 53.066406 38.480469 C 52.898438 38.222656 52.707031 37.984375 52.492188 37.765625 C 52.277344 37.546875 52.042969 37.351562 51.789062 37.179688 C 51.535156 37.003906 51.269531 36.855469 50.988281 36.734375 C 50.707031 36.613281 50.414062 36.523438 50.117188 36.457031 L 43.140625 35.066406 C 43.96875 34.496094 44.8125 33.949219 45.671875 33.429688 C 46.53125 32.910156 47.40625 32.414062 48.292969 31.941406 C 49.179688 31.472656 50.082031 31.03125 50.996094 30.613281 C 51.910156 30.195312 52.835938 29.804688 53.773438 29.441406 C 54.710938 29.078125 55.65625 28.742188 56.613281 28.429688 C 57.570312 28.121094 58.535156 27.84375 59.507812 27.589844 C 60.480469 27.335938 61.457031 27.113281 62.445312 26.917969 C 63.429688 26.722656 64.421875 26.554688 65.414062 26.417969 C 66.410156 26.277344 67.410156 26.167969 68.410156 26.089844 C 69.414062 26.007812 70.417969 25.957031 71.421875 25.9375 C 72.425781 25.914062 73.429688 25.921875 74.433594 25.960938 C 75.4375 25.996094 76.441406 26.0625 77.441406 26.15625 C 78.441406 26.25 79.4375 26.375 80.433594 26.527344 C 81.425781 26.683594 82.414062 26.863281 83.394531 27.074219 C 84.378906 27.285156 85.355469 27.523438 86.324219 27.789062 C 87.292969 28.058594 88.25 28.351562 89.203125 28.675781 C 90.15625 29 91.097656 29.347656 92.027344 29.726562 C 92.957031 30.105469 93.878906 30.507812 94.785156 30.941406 C 95.695312 31.371094 96.589844 31.828125 97.46875 32.3125 C 98.351562 32.792969 99.214844 33.300781 100.066406 33.835938 C 100.921875 34.371094 101.753906 34.925781 102.574219 35.511719 C 103.394531 36.09375 104.195312 36.699219 104.980469 37.324219 C 105.761719 37.953125 106.527344 38.605469 107.273438 39.277344 C 108.019531 39.953125 108.746094 40.648438 109.453125 41.363281 C 110.15625 42.078125 110.84375 42.8125 111.503906 43.566406 C 112.167969 44.324219 112.808594 45.097656 113.425781 45.890625 C 114.042969 46.683594 114.640625 47.492188 115.210938 48.320312 C 115.78125 49.144531 116.328125 49.988281 116.847656 50.847656 C 117.371094 51.707031 117.867188 52.578125 118.339844 53.46875 C 118.808594 54.355469 119.253906 55.253906 119.671875 56.167969 C 120.089844 57.082031 120.484375 58.007812 120.847656 58.945312 C 121.214844 59.878906 121.550781 60.824219 121.859375 61.78125 C 122.171875 62.738281 122.453125 63.703125 122.707031 64.675781 C 122.960938 65.648438 123.1875 66.625 123.382812 67.609375 C 123.578125 68.597656 123.75 69.585938 123.886719 70.582031 C 124.027344 71.578125 124.136719 72.574219 124.21875 73.578125 C 124.300781 74.578125 124.351562 75.582031 124.375 76.585938 C 124.398438 77.589844 124.390625 78.597656 124.355469 79.601562 C 124.320312 80.605469 124.257812 81.605469 124.164062 82.609375 C 124.070312 83.609375 123.945312 84.605469 123.792969 85.597656 C 123.644531 86.589844 123.460938 87.578125 123.253906 88.5625 C 123.042969 89.546875 122.808594 90.523438 122.542969 91.492188 C 122.273438 92.460938 121.980469 93.421875 121.660156 94.371094 C 121.339844 95.324219 120.988281 96.265625 120.613281 97.199219 C 120.234375 98.128906 119.832031 99.050781 119.402344 99.957031 C 118.972656 100.867188 118.515625 101.761719 118.035156 102.644531 C 117.550781 103.523438 117.046875 104.390625 116.511719 105.246094 C 115.980469 106.097656 115.421875 106.933594 114.84375 107.753906 C 114.261719 108.574219 113.65625 109.375 113.03125 110.160156 C 112.402344 110.945312 111.75 111.710938 111.078125 112.457031 C 110.40625 113.203125 109.714844 113.929688 109 114.636719 C 108.285156 115.34375 107.550781 116.03125 106.796875 116.695312 C 106.042969 117.359375 105.269531 118 104.476562 118.617188 C 103.6875 119.238281 102.875 119.832031 102.050781 120.40625 C 101.222656 120.976562 100.382812 121.523438 99.523438 122.046875 C 98.664062 122.570312 97.792969 123.066406 96.90625 123.539062 C 96.019531 124.011719 95.117188 124.457031 94.207031 124.878906 C 93.292969 125.296875 92.367188 125.691406 91.433594 126.058594 C 90.496094 126.421875 89.550781 126.761719 88.597656 127.074219 C 87.640625 127.386719 86.675781 127.667969 85.703125 127.921875 C 84.734375 128.179688 83.753906 128.40625 82.769531 128.601562 C 81.785156 128.800781 80.792969 128.972656 79.796875 129.113281 C 78.804688 129.253906 77.804688 129.363281 76.804688 129.445312 C 75.800781 129.53125 74.800781 129.582031 73.792969 129.605469 C 73.484375 129.613281 73.179688 129.652344 72.878906 129.71875 C 72.574219 129.789062 72.28125 129.886719 72 130.011719 C 71.714844 130.136719 71.449219 130.289062 71.195312 130.464844 C 70.941406 130.644531 70.707031 130.847656 70.496094 131.070312 C 70.28125 131.292969 70.09375 131.539062 69.925781 131.800781 C 69.761719 132.058594 69.621094 132.335938 69.511719 132.625 C 69.398438 132.914062 69.316406 133.210938 69.265625 133.515625 C 69.210938 133.820312 69.1875 134.128906 69.195312 134.4375 C 69.203125 134.746094 69.242188 135.050781 69.308594 135.355469 C 69.375 135.65625 69.472656 135.949219 69.597656 136.234375 C 69.722656 136.515625 69.875 136.785156 70.054688 137.035156 C 70.230469 137.289062 70.433594 137.523438 70.65625 137.738281 C 70.882812 137.949219 71.125 138.140625 71.386719 138.304688 C 71.648438 138.472656 71.921875 138.609375 72.210938 138.722656 C 72.5 138.832031 72.796875 138.914062 73.101562 138.96875 C 73.40625 139.023438 73.714844 139.042969 74.023438 139.039062 C 75.511719 139 77 138.910156 78.480469 138.765625 C 79.964844 138.621094 81.4375 138.421875 82.90625 138.167969 C 84.375 137.917969 85.832031 137.613281 87.277344 137.253906 C 88.722656 136.894531 90.152344 136.484375 91.570312 136.019531 C 92.984375 135.558594 94.382812 135.042969 95.761719 134.480469 C 97.140625 133.914062 98.496094 133.300781 99.828125 132.636719 C 101.164062 131.972656 102.46875 131.261719 103.75 130.503906 C 105.03125 129.746094 106.285156 128.941406 107.507812 128.089844 C 108.730469 127.238281 109.921875 126.347656 111.078125 125.410156 C 112.238281 124.472656 113.359375 123.496094 114.445312 122.476562 C 115.535156 121.457031 116.582031 120.402344 117.589844 119.304688 C 118.601562 118.210938 119.570312 117.078125 120.496094 115.914062 C 121.421875 114.75 122.308594 113.550781 123.148438 112.320312 C 123.988281 111.089844 124.78125 109.832031 125.527344 108.542969 C 126.277344 107.253906 126.976562 105.941406 127.628906 104.601562 C 128.28125 103.265625 128.882812 101.902344 129.4375 100.519531 C 129.992188 99.136719 130.492188 97.734375 130.945312 96.316406 C 131.394531 94.898438 131.792969 93.460938 132.140625 92.015625 C 132.488281 90.566406 132.78125 89.105469 133.019531 87.636719 C 133.261719 86.164062 133.445312 84.6875 133.578125 83.207031 C 133.710938 81.722656 133.789062 80.234375 133.8125 78.746094 C 133.835938 77.257812 133.808594 75.769531 133.722656 74.28125 C 133.640625 72.792969 133.5 71.3125 133.308594 69.835938 C 133.117188 68.359375 132.871094 66.890625 132.570312 65.429688 C 132.269531 63.972656 131.917969 62.527344 131.511719 61.09375 C 131.109375 59.660156 130.652344 58.242188 130.144531 56.84375 C 129.636719 55.441406 129.078125 54.0625 128.46875 52.703125 C 127.859375 51.34375 127.203125 50.007812 126.496094 48.695312 C 125.789062 47.386719 125.039062 46.101562 124.238281 44.84375 C 123.4375 43.585938 122.59375 42.363281 121.703125 41.167969 C 120.816406 39.972656 119.882812 38.8125 118.910156 37.683594 C 117.9375 36.554688 116.925781 35.464844 115.871094 34.414062 Z M 115.871094 34.414062 "/></g><path style=" stroke:none;fill-rule:nonzero;fill:#fff7f3;fill-opacity:1;" d="M 16.097656 78.429688 C 16.402344 78.429688 16.699219 78.398438 16.996094 78.34375 C 17.292969 78.285156 17.582031 78.199219 17.859375 78.085938 C 18.140625 77.972656 18.40625 77.835938 18.660156 77.671875 C 18.914062 77.507812 19.148438 77.320312 19.363281 77.113281 C 19.582031 76.902344 19.777344 76.671875 19.949219 76.425781 C 20.121094 76.179688 20.269531 75.917969 20.394531 75.644531 C 20.515625 75.367188 20.613281 75.082031 20.679688 74.789062 C 20.746094 74.496094 20.789062 74.199219 20.796875 73.894531 C 20.808594 73.59375 20.789062 73.292969 20.742188 72.996094 C 20.695312 72.699219 20.621094 72.40625 20.515625 72.125 C 20.414062 71.839844 20.285156 71.570312 20.128906 71.3125 C 19.972656 71.054688 19.796875 70.8125 19.59375 70.585938 C 19.390625 70.363281 19.171875 70.160156 18.929688 69.980469 C 18.6875 69.796875 18.433594 69.640625 18.160156 69.507812 C 17.890625 69.375 17.609375 69.269531 17.316406 69.191406 C 17.027344 69.117188 16.730469 69.066406 16.429688 69.042969 C 16.121094 69.023438 15.8125 69.03125 15.507812 69.070312 C 15.203125 69.109375 14.902344 69.179688 14.609375 69.277344 C 14.316406 69.375 14.035156 69.5 13.765625 69.652344 C 13.5 69.804688 13.25 69.984375 13.015625 70.1875 C 12.78125 70.386719 12.570312 70.613281 12.382812 70.855469 C 12.191406 71.097656 12.027344 71.359375 11.890625 71.636719 C 11.753906 71.914062 11.644531 72.199219 11.5625 72.496094 C 11.480469 72.796875 11.429688 73.097656 11.40625 73.40625 C 11.386719 73.714844 11.394531 74.023438 11.433594 74.328125 C 11.472656 74.632812 11.539062 74.933594 11.636719 75.226562 C 11.738281 75.519531 11.863281 75.800781 12.015625 76.070312 C 12.167969 76.335938 12.347656 76.585938 12.546875 76.820312 C 12.75 77.054688 12.972656 77.265625 13.21875 77.453125 C 13.460938 77.644531 13.722656 77.804688 14 77.945312 C 14.273438 78.082031 14.5625 78.191406 14.859375 78.273438 C 15.160156 78.355469 15.460938 78.40625 15.769531 78.429688 Z M 16.097656 78.429688 "/><path style=" stroke:none;fill-rule:nonzero;fill:#fff7f3;fill-opacity:1;" d="M 22.417969 91.207031 C 22.339844 90.90625 22.230469 90.617188 22.09375 90.339844 C 21.960938 90.0625 21.796875 89.800781 21.609375 89.554688 C 21.421875 89.308594 21.214844 89.085938 20.980469 88.878906 C 20.75 88.675781 20.5 88.496094 20.234375 88.339844 C 19.96875 88.183594 19.6875 88.058594 19.394531 87.957031 C 19.101562 87.855469 18.804688 87.785156 18.496094 87.746094 C 18.191406 87.703125 17.882812 87.691406 17.574219 87.710938 C 17.265625 87.730469 16.964844 87.777344 16.664062 87.859375 C 16.367188 87.9375 16.078125 88.042969 15.800781 88.179688 C 15.523438 88.316406 15.261719 88.476562 15.015625 88.664062 C 14.769531 88.851562 14.542969 89.0625 14.339844 89.292969 C 14.136719 89.523438 13.953125 89.773438 13.800781 90.039062 C 13.644531 90.308594 13.515625 90.585938 13.414062 90.878906 C 13.316406 91.171875 13.246094 91.472656 13.203125 91.777344 C 13.160156 92.082031 13.152344 92.390625 13.167969 92.699219 C 13.1875 93.007812 13.238281 93.3125 13.316406 93.609375 L 13.316406 93.660156 C 13.453125 94.160156 13.664062 94.621094 13.949219 95.050781 C 14.238281 95.480469 14.585938 95.851562 14.992188 96.164062 C 15.402344 96.480469 15.851562 96.722656 16.339844 96.890625 C 16.824219 97.058594 17.328125 97.144531 17.84375 97.148438 C 18.261719 97.15625 18.671875 97.09375 19.070312 96.960938 C 19.367188 96.882812 19.65625 96.777344 19.9375 96.640625 C 20.214844 96.507812 20.476562 96.347656 20.722656 96.160156 C 20.96875 95.972656 21.195312 95.761719 21.402344 95.53125 C 21.605469 95.296875 21.785156 95.046875 21.941406 94.78125 C 22.097656 94.511719 22.226562 94.234375 22.324219 93.941406 C 22.425781 93.648438 22.496094 93.347656 22.535156 93.039062 C 22.578125 92.734375 22.585938 92.425781 22.566406 92.117188 C 22.546875 91.808594 22.496094 91.503906 22.417969 91.207031 Z M 22.417969 91.207031 "/><path style=" stroke:none;fill-rule:nonzero;fill:#fff7f3;fill-opacity:1;" d="M 18.644531 59.804688 C 19.230469 60.066406 19.84375 60.195312 20.484375 60.183594 C 20.945312 60.1875 21.398438 60.125 21.839844 59.996094 C 22.28125 59.867188 22.695312 59.675781 23.082031 59.425781 C 23.46875 59.171875 23.808594 58.871094 24.105469 58.519531 C 24.402344 58.164062 24.640625 57.777344 24.824219 57.351562 C 24.945312 57.070312 25.042969 56.773438 25.109375 56.472656 C 25.175781 56.167969 25.210938 55.859375 25.21875 55.550781 C 25.222656 55.238281 25.199219 54.933594 25.144531 54.625 C 25.089844 54.320312 25.003906 54.023438 24.890625 53.734375 C 24.777344 53.445312 24.636719 53.171875 24.46875 52.910156 C 24.300781 52.648438 24.105469 52.40625 23.890625 52.183594 C 23.675781 51.960938 23.441406 51.757812 23.183594 51.582031 C 22.929688 51.40625 22.660156 51.253906 22.375 51.132812 C 22.089844 51.007812 21.796875 50.914062 21.492188 50.847656 C 21.1875 50.78125 20.882812 50.746094 20.570312 50.742188 C 20.261719 50.738281 19.953125 50.765625 19.648438 50.820312 C 19.339844 50.875 19.042969 50.960938 18.757812 51.074219 C 18.46875 51.191406 18.191406 51.332031 17.933594 51.5 C 17.671875 51.667969 17.429688 51.863281 17.207031 52.078125 C 16.984375 52.292969 16.785156 52.53125 16.609375 52.785156 C 16.433594 53.042969 16.285156 53.3125 16.160156 53.597656 C 16.039062 53.882812 15.945312 54.179688 15.878906 54.480469 C 15.816406 54.785156 15.78125 55.09375 15.777344 55.402344 C 15.773438 55.714844 15.800781 56.023438 15.855469 56.328125 C 15.914062 56.632812 16 56.929688 16.117188 57.21875 C 16.230469 57.503906 16.375 57.78125 16.542969 58.039062 C 16.710938 58.300781 16.90625 58.542969 17.121094 58.761719 C 17.339844 58.984375 17.578125 59.183594 17.832031 59.359375 C 18.089844 59.535156 18.359375 59.683594 18.644531 59.804688 Z M 18.644531 59.804688 "/><path style=" stroke:none;fill-rule:nonzero;fill:#fff7f3;fill-opacity:1;" d="M 56.746094 127.179688 C 56.449219 127.082031 56.144531 127.007812 55.835938 126.96875 C 55.523438 126.929688 55.210938 126.917969 54.898438 126.941406 C 54.589844 126.964844 54.28125 127.015625 53.980469 127.097656 C 53.675781 127.183594 53.386719 127.292969 53.109375 127.433594 C 52.828125 127.578125 52.566406 127.742188 52.320312 127.9375 C 52.074219 128.132812 51.851562 128.347656 51.648438 128.585938 C 51.445312 128.824219 51.265625 129.082031 51.117188 129.355469 C 50.964844 129.628906 50.839844 129.914062 50.746094 130.214844 C 50.652344 130.511719 50.589844 130.816406 50.554688 131.128906 C 50.523438 131.4375 50.519531 131.75 50.550781 132.0625 C 50.578125 132.375 50.636719 132.679688 50.726562 132.980469 C 50.816406 133.28125 50.9375 133.566406 51.085938 133.84375 C 51.230469 134.121094 51.40625 134.378906 51.605469 134.621094 C 51.804688 134.859375 52.023438 135.082031 52.269531 135.277344 C 52.511719 135.472656 52.769531 135.644531 53.046875 135.789062 C 53.324219 135.9375 53.613281 136.050781 53.914062 136.140625 C 54.375 136.289062 54.847656 136.367188 55.328125 136.375 C 55.890625 136.375 56.433594 136.273438 56.957031 136.078125 C 57.484375 135.882812 57.960938 135.601562 58.382812 135.234375 C 58.808594 134.867188 59.15625 134.441406 59.429688 133.949219 C 59.703125 133.460938 59.878906 132.9375 59.964844 132.382812 C 60.050781 131.828125 60.035156 131.277344 59.925781 130.726562 C 59.8125 130.175781 59.609375 129.664062 59.3125 129.1875 C 59.019531 128.710938 58.652344 128.300781 58.207031 127.953125 C 57.765625 127.609375 57.277344 127.351562 56.746094 127.179688 Z M 56.746094 127.179688 "/><path style=" stroke:none;fill-rule:nonzero;fill:#fff7f3;fill-opacity:1;" d="M 23.03125 105.585938 C 22.773438 105.757812 22.535156 105.957031 22.316406 106.175781 C 22.097656 106.394531 21.902344 106.636719 21.734375 106.894531 C 21.5625 107.152344 21.417969 107.425781 21.300781 107.710938 C 21.183594 108 21.09375 108.296875 21.035156 108.601562 C 20.976562 108.90625 20.945312 109.210938 20.949219 109.523438 C 20.949219 109.832031 20.980469 110.140625 21.042969 110.445312 C 21.105469 110.746094 21.195312 111.042969 21.316406 111.328125 C 21.4375 111.613281 21.585938 111.886719 21.757812 112.140625 C 22.203125 112.785156 22.773438 113.289062 23.464844 113.652344 C 24.15625 114.019531 24.890625 114.207031 25.671875 114.214844 C 26.640625 114.210938 27.523438 113.925781 28.3125 113.367188 C 28.570312 113.195312 28.808594 113 29.027344 112.785156 C 29.242188 112.566406 29.4375 112.328125 29.609375 112.074219 C 29.78125 111.816406 29.925781 111.546875 30.042969 111.261719 C 30.160156 110.976562 30.25 110.679688 30.308594 110.378906 C 30.367188 110.074219 30.398438 109.769531 30.394531 109.460938 C 30.394531 109.152344 30.363281 108.847656 30.300781 108.546875 C 30.238281 108.246094 30.148438 107.953125 30.027344 107.667969 C 29.90625 107.382812 29.757812 107.113281 29.585938 106.859375 C 29.414062 106.601562 29.214844 106.363281 28.996094 106.144531 C 28.777344 105.929688 28.535156 105.734375 28.277344 105.5625 C 28.019531 105.390625 27.746094 105.246094 27.460938 105.128906 C 27.171875 105.011719 26.878906 104.921875 26.574219 104.863281 C 26.269531 104.804688 25.960938 104.777344 25.652344 104.777344 C 25.339844 104.777344 25.035156 104.8125 24.730469 104.871094 C 24.425781 104.933594 24.132812 105.027344 23.847656 105.144531 C 23.558594 105.265625 23.289062 105.414062 23.03125 105.585938 Z M 23.03125 105.585938 "/><path style=" stroke:none;fill-rule:nonzero;fill:#fff7f3;fill-opacity:1;" d="M 34.867188 120.25 C 34.679688 120.5 34.523438 120.761719 34.386719 121.042969 C 34.253906 121.320312 34.152344 121.609375 34.074219 121.910156 C 34 122.210938 33.953125 122.515625 33.933594 122.824219 C 33.917969 123.132812 33.933594 123.441406 33.976562 123.746094 C 34.019531 124.050781 34.09375 124.351562 34.195312 124.644531 C 34.296875 124.933594 34.425781 125.214844 34.585938 125.480469 C 34.742188 125.746094 34.921875 125.996094 35.128906 126.226562 C 35.335938 126.457031 35.5625 126.667969 35.808594 126.851562 C 36.648438 127.46875 37.59375 127.785156 38.636719 127.792969 C 39.378906 127.789062 40.078125 127.621094 40.742188 127.289062 C 41.40625 126.957031 41.960938 126.496094 42.410156 125.910156 C 42.59375 125.660156 42.753906 125.398438 42.886719 125.117188 C 43.019531 124.839844 43.125 124.550781 43.199219 124.25 C 43.277344 123.949219 43.324219 123.644531 43.339844 123.335938 C 43.355469 123.027344 43.34375 122.71875 43.300781 122.414062 C 43.257812 122.105469 43.183594 121.808594 43.082031 121.515625 C 42.976562 121.222656 42.847656 120.945312 42.691406 120.679688 C 42.535156 120.414062 42.351562 120.164062 42.144531 119.933594 C 41.941406 119.703125 41.714844 119.492188 41.464844 119.308594 C 41.21875 119.117188 40.957031 118.953125 40.679688 118.816406 C 40.402344 118.679688 40.109375 118.570312 39.808594 118.492188 C 39.507812 118.410156 39.203125 118.363281 38.894531 118.34375 C 38.582031 118.324219 38.273438 118.339844 37.964844 118.382812 C 37.660156 118.425781 37.359375 118.5 37.066406 118.605469 C 36.773438 118.710938 36.492188 118.84375 36.226562 119.003906 C 35.960938 119.164062 35.710938 119.347656 35.484375 119.558594 C 35.253906 119.769531 35.046875 120 34.867188 120.25 Z M 34.867188 120.25 "/><path style=" stroke:none;fill-rule:nonzero;fill:#fff7f3;fill-opacity:1;" d="M 66.914062 82.066406 L 85.765625 100.921875 C 85.988281 101.136719 86.226562 101.328125 86.484375 101.496094 C 86.742188 101.667969 87.015625 101.808594 87.300781 101.925781 C 87.585938 102.042969 87.878906 102.128906 88.183594 102.1875 C 88.484375 102.25 88.792969 102.277344 89.101562 102.277344 C 89.410156 102.277344 89.714844 102.25 90.015625 102.1875 C 90.320312 102.128906 90.613281 102.042969 90.898438 101.925781 C 91.183594 101.808594 91.457031 101.667969 91.714844 101.496094 C 91.972656 101.328125 92.210938 101.136719 92.433594 100.921875 C 92.652344 100.703125 92.847656 100.464844 93.019531 100.207031 C 93.191406 99.949219 93.335938 99.675781 93.457031 99.390625 C 93.574219 99.105469 93.664062 98.8125 93.722656 98.507812 C 93.785156 98.203125 93.816406 97.898438 93.816406 97.585938 C 93.816406 97.277344 93.785156 96.972656 93.722656 96.667969 C 93.664062 96.363281 93.574219 96.070312 93.457031 95.78125 C 93.335938 95.496094 93.191406 95.226562 93.019531 94.96875 C 92.847656 94.710938 92.652344 94.472656 92.433594 94.253906 L 74.953125 76.773438 L 74.953125 50.4375 C 74.953125 50.125 74.925781 49.820312 74.863281 49.515625 C 74.804688 49.210938 74.714844 48.917969 74.597656 48.632812 C 74.476562 48.347656 74.332031 48.074219 74.160156 47.816406 C 73.988281 47.558594 73.792969 47.320312 73.574219 47.101562 C 73.355469 46.882812 73.117188 46.6875 72.859375 46.515625 C 72.601562 46.34375 72.332031 46.199219 72.042969 46.082031 C 71.757812 45.960938 71.464844 45.871094 71.160156 45.8125 C 70.855469 45.75 70.550781 45.722656 70.238281 45.722656 C 69.929688 45.722656 69.625 45.75 69.320312 45.8125 C 69.015625 45.871094 68.722656 45.960938 68.433594 46.082031 C 68.148438 46.199219 67.878906 46.34375 67.621094 46.515625 C 67.363281 46.6875 67.125 46.882812 66.90625 47.101562 C 66.6875 47.320312 66.492188 47.558594 66.320312 47.816406 C 66.148438 48.074219 66.003906 48.347656 65.882812 48.632812 C 65.765625 48.917969 65.675781 49.210938 65.613281 49.515625 C 65.554688 49.820312 65.523438 50.125 65.523438 50.4375 L 65.523438 78.726562 C 65.539062 80.027344 66 81.140625 66.914062 82.066406 Z M 66.914062 82.066406 "/></g></svg>