<svg xmlns="http://www.w3.org/2000/svg" xmlns:xlink="http://www.w3.org/1999/xlink" width="200" zoomAndPan="magnify" viewBox="0 0 150 149.999998" height="200" preserveAspectRatio="xMidYMid meet" version="1.2"><defs><clipPath id="a0d44786eb"><path d="M 50.835938 10.589844 L 139.589844 10.589844 L 139.589844 99.480469 L 50.835938 99.480469 Z M 50.835938 10.589844 "/></clipPath><clipPath id="62e728c844"><path d="M 10.589844 95 L 55 95 L 55 139.589844 L 10.589844 139.589844 Z M 10.589844 95 "/></clipPath></defs><g id="e15795dc9f"><g clip-rule="nonzero" clip-path="url(#a0d44786eb)"><path style=" stroke:none;fill-rule:evenodd;fill:#a0a7aa;fill-opacity:1;" d="M 137.566406 99.300781 L 52.929688 99.300781 C 51.804688 99.300781 50.890625 98.386719 50.890625 97.261719 L 50.890625 12.625 C 50.890625 11.5 51.804688 10.589844 52.929688 10.589844 C 54.054688 10.589844 54.964844 11.5 54.964844 12.625 L 54.964844 95.226562 L 137.566406 95.226562 C 138.691406 95.226562 139.601562 96.136719 139.601562 97.261719 C 139.601562 98.386719 138.691406 99.300781 137.566406 99.300781 "/></g><g clip-rule="nonzero" clip-path="url(#62e728c844)"><path style=" stroke:none;fill-rule:evenodd;fill:#a0a7aa;fill-opacity:1;" d="M 12.625 139.597656 C 12.105469 139.597656 11.582031 139.398438 11.183594 139.003906 C 10.390625 138.207031 10.390625 136.917969 11.183594 136.121094 L 51.488281 95.820312 C 52.285156 95.023438 53.574219 95.023438 54.367188 95.820312 C 55.164062 96.613281 55.164062 97.902344 54.367188 98.699219 L 14.066406 139.003906 C 13.667969 139.398438 13.144531 139.597656 12.625 139.597656 "/></g><path style=" stroke:none;fill-rule:evenodd;fill:#ed6b6b;fill-opacity:1;" d="M 86.597656 41.507812 L 96.253906 41.507812 L 96.253906 31.851562 L 86.597656 31.851562 L 86.597656 41.507812 "/><path style=" stroke:none;fill-rule:evenodd;fill:#ed6b6b;fill-opacity:1;" d="M 75.347656 63.757812 L 85.003906 63.757812 L 85.003906 54.101562 L 75.347656 54.101562 L 75.347656 63.757812 "/><path style=" stroke:none;fill-rule:evenodd;fill:#ed6b6b;fill-opacity:1;" d="M 64.097656 86.007812 L 73.75 86.007812 L 73.75 76.351562 L 64.097656 76.351562 L 64.097656 86.007812 "/><path style=" stroke:none;fill-rule:evenodd;fill:#64b5f6;fill-opacity:1;" d="M 51.792969 126.648438 C 49.128906 126.648438 46.964844 124.488281 46.964844 121.820312 C 46.964844 119.152344 49.128906 116.992188 51.792969 116.992188 C 54.460938 116.992188 56.625 119.152344 56.625 121.820312 C 56.625 124.488281 54.460938 126.648438 51.792969 126.648438 "/><path style=" stroke:none;fill-rule:evenodd;fill:#ed6b6b;fill-opacity:1;" d="M 98.859375 86.007812 L 108.511719 86.007812 L 108.511719 76.351562 L 98.859375 76.351562 L 98.859375 86.007812 "/><path style=" stroke:none;fill-rule:evenodd;fill:#ed6b6b;fill-opacity:1;" d="M 109.6875 63.757812 L 119.34375 63.757812 L 119.34375 54.101562 L 109.6875 54.101562 L 109.6875 63.757812 "/><path style=" stroke:none;fill-rule:evenodd;fill:#64b5f6;fill-opacity:1;" d="M 82.023438 116.320312 C 79.355469 116.320312 77.195312 114.160156 77.195312 111.492188 C 77.195312 108.828125 79.355469 106.664062 82.023438 106.664062 C 84.6875 106.664062 86.847656 108.828125 86.847656 111.492188 C 86.847656 114.160156 84.6875 116.320312 82.023438 116.320312 "/><path style=" stroke:none;fill-rule:evenodd;fill:#64b5f6;fill-opacity:1;" d="M 77.234375 138.90625 C 74.570312 138.90625 72.410156 136.746094 72.410156 134.078125 C 72.410156 131.414062 74.570312 129.25 77.234375 129.25 C 79.902344 129.25 82.066406 131.414062 82.066406 134.078125 C 82.066406 136.746094 79.902344 138.90625 77.234375 138.90625 "/><path style=" stroke:none;fill-rule:evenodd;fill:#64b5f6;fill-opacity:1;" d="M 104.609375 130.425781 C 101.941406 130.425781 99.78125 128.265625 99.78125 125.597656 C 99.78125 122.933594 101.941406 120.769531 104.609375 120.769531 C 107.273438 120.769531 109.4375 122.933594 109.4375 125.597656 C 109.4375 128.265625 107.273438 130.425781 104.609375 130.425781 "/><path style=" stroke:none;fill-rule:evenodd;fill:#64b5f6;fill-opacity:1;" d="M 125.265625 116.320312 C 122.597656 116.320312 120.4375 114.160156 120.4375 111.492188 C 120.4375 108.828125 122.597656 106.664062 125.265625 106.664062 C 127.929688 106.664062 130.09375 108.828125 130.09375 111.492188 C 130.09375 114.160156 127.929688 116.320312 125.265625 116.320312 "/><path style=" stroke:none;fill-rule:evenodd;fill:#e8be60;fill-opacity:1;" d="M 14.65625 51.289062 L 21.484375 58.117188 L 28.3125 51.289062 L 21.484375 44.460938 L 14.65625 51.289062 "/><path style=" stroke:none;fill-rule:evenodd;fill:#e8be60;fill-opacity:1;" d="M 16.503906 95.789062 L 23.332031 102.617188 L 30.160156 95.789062 L 23.332031 88.964844 L 16.503906 95.789062 "/><path style=" stroke:none;fill-rule:evenodd;fill:#e8be60;fill-opacity:1;" d="M 27.335938 73.539062 L 34.164062 80.367188 L 40.988281 73.539062 L 34.164062 66.710938 L 27.335938 73.539062 "/></g></svg>