<svg xmlns="http://www.w3.org/2000/svg" xmlns:xlink="http://www.w3.org/1999/xlink" width="200" zoomAndPan="magnify" viewBox="0 0 150 149.999998" height="200" preserveAspectRatio="xMidYMid meet" version="1.2"><g id="979714225b"><path style=" stroke:none;fill-rule:evenodd;fill:#fff7f3;fill-opacity:1;" d="M 38.046875 97.425781 C 30.957031 97.425781 25.207031 103.175781 25.207031 110.265625 C 25.207031 117.355469 30.957031 123.101562 38.046875 123.101562 C 45.136719 123.101562 50.882812 117.355469 50.882812 110.265625 C 50.882812 103.175781 45.136719 97.425781 38.046875 97.425781 Z M 12.371094 110.265625 C 12.371094 96.085938 23.863281 84.589844 38.046875 84.589844 C 52.226562 84.589844 63.722656 96.085938 63.722656 110.265625 C 63.722656 124.445312 52.226562 135.941406 38.046875 135.941406 C 23.863281 135.941406 12.371094 124.445312 12.371094 110.265625 Z M 12.371094 110.265625 "/><path style=" stroke:none;fill-rule:evenodd;fill:#fff7f3;fill-opacity:1;" d="M 50.882812 23.609375 L 63.722656 23.609375 L 63.722656 111.871094 L 50.882812 111.871094 Z M 50.882812 23.609375 "/><path style=" stroke:none;fill-rule:evenodd;fill:#fff7f3;fill-opacity:1;" d="M 111.863281 97.425781 C 104.773438 97.425781 99.027344 103.175781 99.027344 110.265625 C 99.027344 117.355469 104.773438 123.101562 111.863281 123.101562 C 118.953125 123.101562 124.703125 117.355469 124.703125 110.265625 C 124.703125 103.175781 118.953125 97.425781 111.863281 97.425781 Z M 86.1875 110.265625 C 86.1875 96.085938 97.683594 84.589844 111.863281 84.589844 C 126.042969 84.589844 137.539062 96.085938 137.539062 110.265625 C 137.539062 124.445312 126.042969 135.941406 111.863281 135.941406 C 97.683594 135.941406 86.1875 124.445312 86.1875 110.265625 Z M 86.1875 110.265625 "/><path style=" stroke:none;fill-rule:evenodd;fill:#fff7f3;fill-opacity:1;" d="M 124.703125 36.445312 L 137.539062 36.445312 L 137.539062 111.871094 L 124.703125 111.871094 Z M 124.703125 36.445312 "/><path style=" stroke:none;fill-rule:evenodd;fill:#fff7f3;fill-opacity:1;" d="M 50.882812 24.214844 C 50.882812 18.238281 56.273438 13.703125 62.160156 14.730469 L 129.5625 26.449219 C 134.171875 27.253906 137.539062 31.253906 137.539062 35.9375 L 137.539062 55.097656 C 137.539062 61.074219 132.152344 65.605469 126.261719 64.582031 L 58.863281 52.863281 C 54.25 52.058594 50.882812 48.054688 50.882812 43.375 Z M 63.722656 28.03125 L 63.722656 40.675781 L 124.703125 51.28125 L 124.703125 38.636719 Z M 63.722656 28.03125 "/></g></svg>