<svg xmlns="http://www.w3.org/2000/svg" xmlns:xlink="http://www.w3.org/1999/xlink" width="200" zoomAndPan="magnify" viewBox="0 0 150 149.999998" height="200" preserveAspectRatio="xMidYMid meet" version="1.2"><defs><clipPath id="d1050536dc"><path d="M 10.828125 33 L 120 33 L 120 124 L 10.828125 124 Z M 10.828125 33 "/></clipPath></defs><g id="f3d47b3f5c"><path style=" stroke:none;fill-rule:nonzero;fill:#69a7ff;fill-opacity:1;" d="M 63.761719 113.113281 C 63.757812 112.878906 63.800781 112.652344 63.886719 112.4375 C 63.976562 112.21875 64.101562 112.027344 64.265625 111.859375 C 64.429688 111.695312 64.621094 111.566406 64.835938 111.476562 C 65.054688 111.386719 65.277344 111.339844 65.511719 111.339844 C 65.746094 111.339844 65.972656 111.386719 66.1875 111.476562 C 66.40625 111.566406 66.597656 111.695312 66.761719 111.859375 C 66.925781 112.027344 67.050781 112.21875 67.140625 112.4375 C 67.226562 112.652344 67.269531 112.878906 67.265625 113.113281 L 67.265625 122.15625 C 67.269531 122.390625 67.226562 122.617188 67.140625 122.835938 C 67.050781 123.050781 66.925781 123.242188 66.761719 123.410156 C 66.597656 123.578125 66.40625 123.707031 66.1875 123.796875 C 65.972656 123.886719 65.746094 123.929688 65.511719 123.929688 C 65.277344 123.929688 65.054688 123.886719 64.835938 123.796875 C 64.621094 123.707031 64.429688 123.578125 64.265625 123.410156 C 64.101562 123.242188 63.976562 123.050781 63.886719 122.835938 C 63.800781 122.617188 63.757812 122.390625 63.761719 122.15625 Z M 30.734375 116.460938 C 30.734375 116.230469 30.777344 116.003906 30.867188 115.789062 C 30.957031 115.574219 31.085938 115.382812 31.25 115.21875 C 31.414062 115.054688 31.605469 114.925781 31.820312 114.839844 C 32.035156 114.75 32.257812 114.703125 32.492188 114.703125 C 32.726562 114.703125 32.949219 114.75 33.164062 114.839844 C 33.378906 114.925781 33.570312 115.054688 33.734375 115.21875 C 33.898438 115.382812 34.027344 115.574219 34.117188 115.789062 C 34.203125 116.003906 34.25 116.230469 34.25 116.460938 L 34.25 122.15625 C 34.25 122.390625 34.203125 122.613281 34.117188 122.832031 C 34.027344 123.046875 33.898438 123.234375 33.734375 123.402344 C 33.570312 123.566406 33.378906 123.691406 33.164062 123.78125 C 32.949219 123.871094 32.726562 123.917969 32.492188 123.917969 C 32.257812 123.917969 32.035156 123.871094 31.820312 123.78125 C 31.605469 123.691406 31.414062 123.566406 31.25 123.402344 C 31.085938 123.234375 30.957031 123.046875 30.867188 122.832031 C 30.777344 122.613281 30.734375 122.390625 30.734375 122.15625 Z M 37.339844 113.113281 C 37.339844 112.878906 37.386719 112.65625 37.476562 112.441406 C 37.566406 112.226562 37.691406 112.035156 37.855469 111.871094 C 38.019531 111.707031 38.210938 111.582031 38.425781 111.492188 C 38.640625 111.402344 38.867188 111.355469 39.097656 111.355469 C 39.332031 111.355469 39.554688 111.402344 39.769531 111.492188 C 39.984375 111.582031 40.175781 111.707031 40.339844 111.871094 C 40.503906 112.035156 40.632812 112.226562 40.722656 112.441406 C 40.8125 112.65625 40.855469 112.878906 40.855469 113.113281 L 40.855469 122.15625 C 40.855469 122.390625 40.8125 122.613281 40.722656 122.828125 C 40.632812 123.046875 40.503906 123.234375 40.339844 123.398438 C 40.175781 123.566406 39.984375 123.691406 39.769531 123.78125 C 39.554688 123.871094 39.332031 123.914062 39.097656 123.914062 C 38.867188 123.914062 38.640625 123.871094 38.425781 123.78125 C 38.210938 123.691406 38.019531 123.566406 37.855469 123.398438 C 37.691406 123.234375 37.566406 123.046875 37.476562 122.828125 C 37.386719 122.613281 37.339844 122.390625 37.339844 122.15625 Z M 43.949219 116.460938 C 43.949219 116.230469 43.992188 116.003906 44.082031 115.789062 C 44.171875 115.574219 44.296875 115.386719 44.464844 115.222656 C 44.628906 115.054688 44.816406 114.929688 45.03125 114.839844 C 45.25 114.75 45.472656 114.707031 45.707031 114.707031 C 45.9375 114.707031 46.164062 114.75 46.378906 114.839844 C 46.59375 114.929688 46.78125 115.054688 46.949219 115.222656 C 47.113281 115.386719 47.238281 115.574219 47.328125 115.789062 C 47.417969 116.003906 47.460938 116.230469 47.460938 116.460938 L 47.460938 122.15625 C 47.460938 122.390625 47.417969 122.613281 47.328125 122.828125 C 47.238281 123.046875 47.113281 123.234375 46.949219 123.398438 C 46.78125 123.566406 46.59375 123.691406 46.378906 123.78125 C 46.164062 123.871094 45.9375 123.914062 45.707031 123.914062 C 45.472656 123.914062 45.25 123.871094 45.03125 123.78125 C 44.816406 123.691406 44.628906 123.566406 44.464844 123.398438 C 44.296875 123.234375 44.171875 123.046875 44.082031 122.828125 C 43.992188 122.613281 43.949219 122.390625 43.949219 122.15625 Z M 50.546875 113.113281 C 50.546875 112.878906 50.59375 112.65625 50.683594 112.441406 C 50.769531 112.226562 50.898438 112.035156 51.0625 111.871094 C 51.226562 111.707031 51.417969 111.582031 51.632812 111.492188 C 51.847656 111.402344 52.070312 111.355469 52.304688 111.355469 C 52.539062 111.355469 52.761719 111.402344 52.976562 111.492188 C 53.191406 111.582031 53.382812 111.707031 53.546875 111.871094 C 53.710938 112.035156 53.839844 112.226562 53.929688 112.441406 C 54.015625 112.65625 54.0625 112.878906 54.0625 113.113281 L 54.0625 122.15625 C 54.0625 122.390625 54.015625 122.613281 53.929688 122.828125 C 53.839844 123.046875 53.710938 123.234375 53.546875 123.398438 C 53.382812 123.566406 53.191406 123.691406 52.976562 123.78125 C 52.761719 123.871094 52.539062 123.914062 52.304688 123.914062 C 52.070312 123.914062 51.847656 123.871094 51.632812 123.78125 C 51.417969 123.691406 51.226562 123.566406 51.0625 123.398438 C 50.898438 123.234375 50.769531 123.046875 50.683594 122.828125 C 50.59375 122.613281 50.546875 122.390625 50.546875 122.15625 Z M 57.15625 116.460938 C 57.15625 116.230469 57.199219 116.003906 57.289062 115.789062 C 57.378906 115.574219 57.503906 115.386719 57.667969 115.222656 C 57.832031 115.054688 58.023438 114.929688 58.238281 114.839844 C 58.453125 114.75 58.679688 114.707031 58.910156 114.707031 C 59.144531 114.707031 59.367188 114.75 59.582031 114.839844 C 59.800781 114.929688 59.988281 115.054688 60.152344 115.222656 C 60.320312 115.386719 60.445312 115.574219 60.535156 115.789062 C 60.625 116.003906 60.667969 116.230469 60.667969 116.460938 L 60.667969 122.15625 C 60.667969 122.390625 60.625 122.613281 60.535156 122.828125 C 60.445312 123.046875 60.320312 123.234375 60.152344 123.398438 C 59.988281 123.566406 59.800781 123.691406 59.582031 123.78125 C 59.367188 123.871094 59.144531 123.914062 58.910156 123.914062 C 58.679688 123.914062 58.453125 123.871094 58.238281 123.78125 C 58.023438 123.691406 57.832031 123.566406 57.667969 123.398438 C 57.503906 123.234375 57.378906 123.046875 57.289062 122.828125 C 57.199219 122.613281 57.15625 122.390625 57.15625 122.15625 Z M 57.15625 116.460938 "/><path style=" stroke:none;fill-rule:nonzero;fill:#fb4455;fill-opacity:1;" d="M 72.117188 101.800781 L 80.578125 101.800781 L 80.578125 122.15625 L 72.117188 122.15625 Z M 72.117188 101.800781 "/><path style=" stroke:none;fill-rule:nonzero;fill:#45bf64;fill-opacity:1;" d="M 102.253906 85.589844 L 110.71875 85.589844 L 110.71875 122.15625 L 102.253906 122.15625 Z M 102.253906 85.589844 "/><path style=" stroke:none;fill-rule:nonzero;fill:#fea832;fill-opacity:1;" d="M 87.1875 93.695312 L 95.648438 93.695312 L 95.648438 122.15625 L 87.1875 122.15625 Z M 87.1875 93.695312 "/><path style=" stroke:none;fill-rule:nonzero;fill:#c0ccda;fill-opacity:1;" d="M 118.992188 66.96875 L 123.753906 65.539062 L 130.769531 88.910156 L 126.003906 90.339844 Z M 118.992188 66.96875 "/><path style=" stroke:none;fill-rule:evenodd;fill:#69a7ff;fill-opacity:1;" d="M 109.984375 28.363281 C 110.65625 28.160156 111.335938 27.992188 112.023438 27.855469 C 112.710938 27.722656 113.402344 27.621094 114.097656 27.554688 C 114.796875 27.488281 115.496094 27.453125 116.195312 27.457031 C 116.894531 27.457031 117.59375 27.496094 118.289062 27.566406 C 118.988281 27.636719 119.679688 27.738281 120.367188 27.878906 C 121.050781 28.015625 121.730469 28.1875 122.398438 28.394531 C 123.070312 28.597656 123.726562 28.835938 124.375 29.105469 C 125.019531 29.375 125.652344 29.675781 126.269531 30.007812 C 126.886719 30.339844 127.484375 30.699219 128.066406 31.089844 C 128.648438 31.480469 129.207031 31.898438 129.746094 32.34375 C 130.289062 32.789062 130.804688 33.261719 131.300781 33.757812 C 131.792969 34.253906 132.261719 34.773438 132.703125 35.316406 C 133.148438 35.855469 133.5625 36.417969 133.949219 37.003906 C 134.335938 37.585938 134.695312 38.1875 135.023438 38.804688 C 135.351562 39.421875 135.648438 40.058594 135.917969 40.703125 C 136.183594 41.351562 136.417969 42.011719 136.617188 42.679688 C 136.820312 43.351562 136.988281 44.03125 137.121094 44.71875 C 137.257812 45.40625 137.359375 46.097656 137.425781 46.792969 C 137.492188 47.492188 137.523438 48.191406 137.523438 48.890625 C 137.519531 49.589844 137.484375 50.289062 137.414062 50.984375 C 137.34375 51.683594 137.238281 52.375 137.101562 53.058594 C 136.960938 53.746094 136.789062 54.425781 136.585938 55.09375 C 136.378906 55.761719 136.144531 56.421875 135.875 57.066406 C 135.605469 57.714844 135.304688 58.34375 134.972656 58.960938 C 134.640625 59.578125 134.277344 60.175781 133.886719 60.757812 C 133.496094 61.339844 133.078125 61.898438 132.632812 62.441406 C 132.1875 62.980469 131.714844 63.496094 131.21875 63.992188 C 130.722656 64.484375 130.203125 64.953125 129.660156 65.394531 C 129.117188 65.839844 128.554688 66.253906 127.972656 66.640625 C 127.390625 67.027344 126.789062 67.386719 126.167969 67.714844 C 125.550781 68.042969 124.917969 68.339844 124.269531 68.605469 C 123.621094 68.871094 122.960938 69.105469 122.292969 69.308594 C 121.621094 69.507812 120.941406 69.675781 120.253906 69.8125 C 119.566406 69.945312 118.875 70.046875 118.179688 70.113281 C 117.480469 70.179688 116.78125 70.214844 116.082031 70.210938 C 115.382812 70.210938 114.683594 70.171875 113.988281 70.101562 C 113.289062 70.03125 112.597656 69.925781 111.910156 69.789062 C 111.226562 69.652344 110.546875 69.480469 109.878906 69.273438 C 109.207031 69.070312 108.550781 68.832031 107.902344 68.5625 C 107.257812 68.292969 106.625 67.992188 106.007812 67.660156 C 105.394531 67.328125 104.792969 66.964844 104.210938 66.574219 C 103.632812 66.183594 103.070312 65.765625 102.53125 65.320312 C 101.992188 64.875 101.472656 64.402344 100.980469 63.90625 C 100.484375 63.410156 100.015625 62.890625 99.574219 62.347656 C 99.132812 61.804688 98.71875 61.242188 98.328125 60.660156 C 97.941406 60.078125 97.585938 59.476562 97.253906 58.859375 C 96.925781 58.238281 96.628906 57.605469 96.363281 56.957031 C 96.097656 56.3125 95.863281 55.652344 95.664062 54.980469 C 95.460938 54.3125 95.292969 53.632812 95.160156 52.945312 C 95.023438 52.257812 94.921875 51.566406 94.855469 50.871094 C 94.789062 50.171875 94.757812 49.476562 94.761719 48.773438 C 94.761719 48.074219 94.796875 47.375 94.867188 46.679688 C 94.941406 45.984375 95.042969 45.292969 95.183594 44.605469 C 95.320312 43.921875 95.492188 43.242188 95.699219 42.574219 C 95.902344 41.902344 96.140625 41.246094 96.410156 40.601562 C 96.679688 39.953125 96.980469 39.324219 97.3125 38.707031 C 97.644531 38.089844 98.003906 37.492188 98.394531 36.910156 C 98.785156 36.328125 99.203125 35.769531 99.648438 35.230469 C 100.09375 34.691406 100.566406 34.171875 101.0625 33.679688 C 101.558594 33.1875 102.078125 32.71875 102.621094 32.273438 C 103.164062 31.832031 103.726562 31.417969 104.308594 31.03125 C 104.890625 30.640625 105.492188 30.285156 106.109375 29.957031 C 106.726562 29.628906 107.359375 29.328125 108.007812 29.0625 C 108.65625 28.796875 109.316406 28.5625 109.984375 28.363281 Z M 109.984375 28.363281 "/><path style=" stroke:none;fill-rule:evenodd;fill:#d5e3f2;fill-opacity:1;" d="M 111.554688 33.582031 C 112.054688 33.429688 112.5625 33.304688 113.074219 33.203125 C 113.585938 33.105469 114.101562 33.03125 114.621094 32.980469 C 115.140625 32.929688 115.660156 32.90625 116.183594 32.90625 C 116.703125 32.910156 117.226562 32.9375 117.742188 32.988281 C 118.261719 33.042969 118.777344 33.117188 119.289062 33.222656 C 119.800781 33.324219 120.304688 33.453125 120.804688 33.605469 C 121.304688 33.757812 121.792969 33.9375 122.273438 34.136719 C 122.757812 34.335938 123.226562 34.5625 123.6875 34.808594 C 124.144531 35.054688 124.59375 35.324219 125.023438 35.617188 C 125.457031 35.90625 125.875 36.21875 126.277344 36.550781 C 126.679688 36.882812 127.066406 37.234375 127.433594 37.601562 C 127.800781 37.972656 128.148438 38.359375 128.480469 38.765625 C 128.808594 39.167969 129.121094 39.585938 129.40625 40.023438 C 129.695312 40.457031 129.964844 40.902344 130.207031 41.363281 C 130.453125 41.824219 130.675781 42.296875 130.871094 42.78125 C 131.070312 43.261719 131.246094 43.753906 131.394531 44.253906 C 131.546875 44.753906 131.671875 45.257812 131.769531 45.769531 C 131.871094 46.28125 131.945312 46.796875 131.996094 47.316406 C 132.046875 47.835938 132.070312 48.355469 132.070312 48.878906 C 132.066406 49.398438 132.039062 49.917969 131.988281 50.4375 C 131.933594 50.957031 131.855469 51.472656 131.753906 51.984375 C 131.652344 52.496094 131.523438 53 131.371094 53.5 C 131.21875 53.996094 131.039062 54.488281 130.839844 54.96875 C 130.640625 55.449219 130.414062 55.921875 130.167969 56.378906 C 129.921875 56.839844 129.652344 57.285156 129.359375 57.71875 C 129.070312 58.152344 128.757812 58.570312 128.425781 58.972656 C 128.09375 59.375 127.742188 59.757812 127.371094 60.125 C 127.003906 60.496094 126.617188 60.84375 126.210938 61.171875 C 125.808594 61.503906 125.386719 61.8125 124.953125 62.101562 C 124.519531 62.390625 124.070312 62.65625 123.609375 62.902344 C 123.148438 63.144531 122.679688 63.367188 122.195312 63.566406 C 121.714844 63.761719 121.222656 63.9375 120.722656 64.085938 C 120.222656 64.238281 119.71875 64.363281 119.207031 64.464844 C 118.691406 64.5625 118.175781 64.640625 117.660156 64.6875 C 117.140625 64.738281 116.617188 64.761719 116.097656 64.761719 C 115.574219 64.761719 115.054688 64.734375 114.535156 64.679688 C 114.015625 64.628906 113.5 64.550781 112.988281 64.449219 C 112.476562 64.34375 111.972656 64.214844 111.472656 64.0625 C 110.976562 63.910156 110.484375 63.734375 110.003906 63.535156 C 109.523438 63.332031 109.050781 63.109375 108.59375 62.863281 C 108.132812 62.613281 107.6875 62.34375 107.253906 62.054688 C 106.820312 61.761719 106.402344 61.453125 106 61.121094 C 105.597656 60.789062 105.214844 60.4375 104.84375 60.066406 C 104.476562 59.699219 104.128906 59.3125 103.796875 58.90625 C 103.46875 58.503906 103.160156 58.082031 102.871094 57.648438 C 102.582031 57.214844 102.316406 56.765625 102.070312 56.304688 C 101.824219 55.84375 101.605469 55.375 101.40625 54.890625 C 101.207031 54.410156 101.03125 53.917969 100.882812 53.417969 C 100.730469 52.917969 100.605469 52.414062 100.503906 51.902344 C 100.40625 51.390625 100.328125 50.875 100.277344 50.355469 C 100.230469 49.835938 100.203125 49.3125 100.207031 48.792969 C 100.207031 48.269531 100.234375 47.75 100.285156 47.230469 C 100.339844 46.710938 100.417969 46.195312 100.519531 45.683594 C 100.621094 45.171875 100.75 44.667969 100.902344 44.167969 C 101.054688 43.671875 101.230469 43.179688 101.433594 42.699219 C 101.632812 42.21875 101.859375 41.746094 102.105469 41.285156 C 102.351562 40.828125 102.621094 40.382812 102.914062 39.949219 C 103.203125 39.515625 103.515625 39.097656 103.847656 38.695312 C 104.179688 38.292969 104.53125 37.90625 104.902344 37.539062 C 105.273438 37.171875 105.660156 36.824219 106.0625 36.492188 C 106.46875 36.164062 106.886719 35.855469 107.324219 35.566406 C 107.757812 35.277344 108.207031 35.011719 108.667969 34.765625 C 109.128906 34.523438 109.601562 34.300781 110.082031 34.101562 C 110.566406 33.902344 111.058594 33.730469 111.554688 33.582031 Z M 111.554688 33.582031 "/><path style=" stroke:none;fill-rule:evenodd;fill:#fea832;fill-opacity:1;" d="M 119.871094 77.335938 L 128.730469 74.675781 L 133.515625 90.601562 C 133.605469 90.894531 133.660156 91.191406 133.691406 91.492188 C 133.71875 91.792969 133.714844 92.097656 133.6875 92.398438 C 133.65625 92.699219 133.59375 92.996094 133.503906 93.285156 C 133.417969 93.574219 133.300781 93.855469 133.15625 94.121094 C 133.011719 94.390625 132.84375 94.640625 132.652344 94.875 C 132.457031 95.109375 132.242188 95.320312 132.007812 95.511719 C 131.773438 95.707031 131.523438 95.871094 131.253906 96.015625 C 130.984375 96.160156 130.707031 96.273438 130.417969 96.363281 C 130.125 96.449219 129.828125 96.503906 129.527344 96.535156 C 129.222656 96.5625 128.921875 96.5625 128.621094 96.53125 C 128.320312 96.5 128.023438 96.4375 127.730469 96.351562 C 127.441406 96.261719 127.164062 96.144531 126.894531 96 C 126.628906 95.855469 126.378906 95.6875 126.144531 95.496094 C 125.910156 95.300781 125.695312 95.089844 125.503906 94.851562 C 125.3125 94.617188 125.144531 94.367188 125.003906 94.097656 C 124.859375 93.832031 124.742188 93.550781 124.65625 93.261719 Z M 119.871094 77.335938 "/><g clip-rule="nonzero" clip-path="url(#d1050536dc)"><path style=" stroke:none;fill-rule:nonzero;fill:#3c6da6;fill-opacity:1;" d="M 10.828125 35.039062 C 10.828125 34.804688 10.875 34.582031 10.964844 34.363281 C 11.050781 34.148438 11.179688 33.960938 11.34375 33.796875 C 11.507812 33.628906 11.699219 33.503906 11.914062 33.414062 C 12.128906 33.324219 12.355469 33.28125 12.585938 33.28125 C 12.820312 33.28125 13.042969 33.324219 13.257812 33.414062 C 13.472656 33.503906 13.664062 33.628906 13.828125 33.796875 C 13.992188 33.960938 14.121094 34.148438 14.210938 34.363281 C 14.300781 34.582031 14.34375 34.804688 14.34375 35.039062 L 14.34375 120.402344 L 118.007812 120.402344 C 118.242188 120.402344 118.464844 120.445312 118.679688 120.535156 C 118.894531 120.625 119.085938 120.75 119.25 120.914062 C 119.414062 121.082031 119.542969 121.269531 119.628906 121.484375 C 119.71875 121.699219 119.765625 121.925781 119.765625 122.15625 C 119.765625 122.390625 119.71875 122.613281 119.628906 122.828125 C 119.542969 123.046875 119.414062 123.234375 119.25 123.398438 C 119.085938 123.5625 118.894531 123.691406 118.679688 123.78125 C 118.464844 123.871094 118.242188 123.914062 118.007812 123.914062 L 12.585938 123.914062 C 12.355469 123.914062 12.128906 123.871094 11.914062 123.78125 C 11.699219 123.691406 11.507812 123.5625 11.34375 123.398438 C 11.179688 123.234375 11.050781 123.046875 10.964844 122.828125 C 10.875 122.613281 10.828125 122.390625 10.828125 122.15625 Z M 10.828125 35.039062 "/></g><path style=" stroke:none;fill-rule:nonzero;fill:#3c6da6;fill-opacity:1;" d="M 25.054688 111.699219 C 24.925781 111.894531 24.769531 112.058594 24.574219 112.191406 C 24.382812 112.328125 24.175781 112.417969 23.945312 112.464844 C 23.71875 112.515625 23.488281 112.519531 23.257812 112.476562 C 23.027344 112.433594 22.816406 112.347656 22.621094 112.222656 C 22.425781 112.09375 22.261719 111.933594 22.128906 111.742188 C 22 111.546875 21.910156 111.335938 21.859375 111.109375 C 21.8125 110.878906 21.8125 110.652344 21.855469 110.421875 C 21.902344 110.191406 21.988281 109.980469 22.117188 109.785156 L 41.152344 80.507812 C 41.277344 80.3125 41.4375 80.148438 41.628906 80.015625 C 41.820312 79.886719 42.027344 79.792969 42.253906 79.746094 C 42.480469 79.699219 42.707031 79.695312 42.9375 79.734375 C 43.164062 79.777344 43.375 79.863281 43.570312 79.988281 L 43.605469 80.007812 L 59.957031 91.226562 L 61.867188 68.5625 C 61.886719 68.328125 61.949219 68.109375 62.054688 67.902344 C 62.160156 67.695312 62.304688 67.515625 62.480469 67.367188 C 62.660156 67.214844 62.859375 67.101562 63.078125 67.03125 C 63.300781 66.960938 63.527344 66.933594 63.761719 66.953125 C 63.929688 66.964844 64.09375 67.003906 64.25 67.066406 L 85.640625 73.679688 L 114.96875 47.523438 C 115.144531 47.371094 115.339844 47.257812 115.558594 47.183594 C 115.78125 47.109375 116.003906 47.082031 116.234375 47.09375 C 116.464844 47.109375 116.683594 47.167969 116.894531 47.269531 C 117.101562 47.371094 117.28125 47.507812 117.433594 47.679688 C 117.589844 47.855469 117.703125 48.050781 117.78125 48.269531 C 117.855469 48.484375 117.886719 48.710938 117.875 48.941406 C 117.863281 49.171875 117.808594 49.390625 117.707031 49.601562 C 117.609375 49.808594 117.472656 49.992188 117.304688 50.148438 L 87.242188 76.960938 L 87.234375 76.953125 C 87.007812 77.15625 86.746094 77.292969 86.445312 77.359375 C 86.144531 77.425781 85.851562 77.414062 85.558594 77.320312 L 65.183594 71.023438 L 63.199219 94.519531 L 63.191406 94.519531 C 63.179688 94.671875 63.148438 94.824219 63.097656 94.964844 C 63.046875 95.109375 62.976562 95.246094 62.890625 95.371094 C 62.800781 95.5 62.699219 95.613281 62.582031 95.710938 C 62.46875 95.808594 62.339844 95.894531 62.203125 95.960938 C 62.0625 96.023438 61.917969 96.070312 61.769531 96.101562 C 61.617188 96.128906 61.464844 96.136719 61.3125 96.125 C 61.160156 96.113281 61.011719 96.078125 60.867188 96.027344 C 60.722656 95.976562 60.585938 95.910156 60.460938 95.820312 L 43.109375 83.917969 Z M 25.054688 111.699219 "/><path style=" stroke:none;fill-rule:evenodd;fill:#fb4455;fill-opacity:1;" d="M 23.585938 114.742188 C 23.851562 114.742188 24.109375 114.714844 24.367188 114.664062 C 24.625 114.613281 24.875 114.539062 25.117188 114.4375 C 25.359375 114.335938 25.589844 114.210938 25.808594 114.066406 C 26.027344 113.921875 26.230469 113.753906 26.414062 113.570312 C 26.601562 113.382812 26.765625 113.179688 26.910156 112.960938 C 27.058594 112.746094 27.179688 112.515625 27.28125 112.269531 C 27.382812 112.027344 27.457031 111.777344 27.507812 111.519531 C 27.558594 111.265625 27.585938 111.003906 27.585938 110.742188 C 27.585938 110.480469 27.558594 110.21875 27.507812 109.960938 C 27.457031 109.703125 27.378906 109.453125 27.28125 109.210938 C 27.179688 108.96875 27.054688 108.738281 26.910156 108.519531 C 26.765625 108.300781 26.597656 108.101562 26.414062 107.914062 C 26.226562 107.730469 26.023438 107.5625 25.804688 107.417969 C 25.589844 107.269531 25.359375 107.148438 25.113281 107.046875 C 24.871094 106.949219 24.621094 106.871094 24.363281 106.820312 C 24.105469 106.769531 23.847656 106.742188 23.585938 106.742188 C 23.320312 106.742188 23.0625 106.769531 22.804688 106.820312 C 22.546875 106.871094 22.296875 106.945312 22.054688 107.046875 C 21.8125 107.148438 21.582031 107.269531 21.363281 107.417969 C 21.144531 107.5625 20.941406 107.726562 20.757812 107.914062 C 20.570312 108.097656 20.40625 108.300781 20.257812 108.519531 C 20.113281 108.738281 19.988281 108.96875 19.890625 109.210938 C 19.789062 109.453125 19.710938 109.703125 19.660156 109.960938 C 19.609375 110.21875 19.585938 110.476562 19.585938 110.742188 C 19.582031 111.003906 19.609375 111.261719 19.660156 111.519531 C 19.710938 111.777344 19.789062 112.03125 19.886719 112.273438 C 19.988281 112.515625 20.113281 112.746094 20.257812 112.964844 C 20.402344 113.183594 20.570312 113.386719 20.757812 113.570312 C 20.941406 113.757812 21.144531 113.921875 21.363281 114.070312 C 21.582031 114.214844 21.8125 114.339844 22.054688 114.4375 C 22.296875 114.539062 22.546875 114.617188 22.804688 114.667969 C 23.0625 114.71875 23.324219 114.742188 23.585938 114.742188 Z M 23.585938 114.742188 "/><path style=" stroke:none;fill-rule:evenodd;fill:#fea832;fill-opacity:1;" d="M 42.617188 85.460938 C 42.882812 85.460938 43.140625 85.4375 43.398438 85.386719 C 43.65625 85.335938 43.90625 85.257812 44.148438 85.15625 C 44.394531 85.058594 44.625 84.933594 44.84375 84.789062 C 45.0625 84.640625 45.261719 84.476562 45.449219 84.289062 C 45.636719 84.105469 45.800781 83.902344 45.945312 83.683594 C 46.09375 83.464844 46.214844 83.234375 46.316406 82.992188 C 46.417969 82.75 46.492188 82.5 46.546875 82.242188 C 46.597656 81.984375 46.621094 81.722656 46.621094 81.460938 C 46.621094 81.195312 46.597656 80.9375 46.546875 80.679688 C 46.492188 80.421875 46.417969 80.171875 46.316406 79.925781 C 46.214844 79.683594 46.09375 79.453125 45.945312 79.234375 C 45.800781 79.015625 45.636719 78.816406 45.449219 78.628906 C 45.261719 78.441406 45.0625 78.277344 44.84375 78.132812 C 44.625 77.984375 44.394531 77.863281 44.148438 77.761719 C 43.90625 77.660156 43.65625 77.585938 43.398438 77.535156 C 43.140625 77.480469 42.878906 77.457031 42.617188 77.457031 C 42.355469 77.457031 42.09375 77.480469 41.835938 77.535156 C 41.578125 77.585938 41.328125 77.660156 41.085938 77.761719 C 40.84375 77.863281 40.613281 77.984375 40.394531 78.132812 C 40.175781 78.277344 39.972656 78.441406 39.785156 78.628906 C 39.601562 78.816406 39.433594 79.015625 39.289062 79.234375 C 39.144531 79.453125 39.019531 79.683594 38.917969 79.929688 C 38.816406 80.171875 38.742188 80.421875 38.691406 80.679688 C 38.640625 80.9375 38.613281 81.195312 38.613281 81.460938 C 38.613281 81.722656 38.640625 81.984375 38.691406 82.238281 C 38.746094 82.496094 38.820312 82.746094 38.921875 82.992188 C 39.023438 83.234375 39.144531 83.464844 39.292969 83.683594 C 39.4375 83.898438 39.605469 84.101562 39.789062 84.289062 C 39.976562 84.472656 40.175781 84.640625 40.394531 84.785156 C 40.613281 84.929688 40.84375 85.054688 41.085938 85.15625 C 41.328125 85.257812 41.578125 85.332031 41.835938 85.382812 C 42.09375 85.4375 42.355469 85.460938 42.617188 85.460938 Z M 42.617188 85.460938 "/><path style=" stroke:none;fill-rule:evenodd;fill:#69a7ff;fill-opacity:1;" d="M 61.449219 98.382812 C 61.710938 98.382812 61.972656 98.355469 62.230469 98.304688 C 62.488281 98.253906 62.738281 98.179688 62.980469 98.078125 C 63.222656 97.976562 63.457031 97.851562 63.671875 97.707031 C 63.890625 97.5625 64.09375 97.394531 64.28125 97.210938 C 64.464844 97.023438 64.632812 96.820312 64.777344 96.601562 C 64.925781 96.382812 65.046875 96.152344 65.148438 95.910156 C 65.25 95.667969 65.324219 95.417969 65.375 95.160156 C 65.425781 94.902344 65.453125 94.640625 65.453125 94.378906 C 65.453125 94.117188 65.425781 93.855469 65.375 93.597656 C 65.324219 93.339844 65.25 93.089844 65.148438 92.847656 C 65.046875 92.605469 64.925781 92.375 64.777344 92.15625 C 64.632812 91.9375 64.464844 91.734375 64.28125 91.546875 C 64.09375 91.363281 63.890625 91.195312 63.671875 91.050781 C 63.457031 90.90625 63.222656 90.78125 62.980469 90.679688 C 62.738281 90.578125 62.488281 90.503906 62.230469 90.453125 C 61.972656 90.402344 61.710938 90.375 61.449219 90.375 C 61.1875 90.375 60.925781 90.402344 60.667969 90.453125 C 60.410156 90.503906 60.160156 90.578125 59.917969 90.679688 C 59.675781 90.78125 59.445312 90.90625 59.226562 91.050781 C 59.007812 91.195312 58.804688 91.363281 58.617188 91.546875 C 58.433594 91.734375 58.265625 91.9375 58.121094 92.15625 C 57.972656 92.375 57.851562 92.605469 57.75 92.847656 C 57.648438 93.089844 57.574219 93.339844 57.523438 93.597656 C 57.472656 93.855469 57.445312 94.117188 57.445312 94.378906 C 57.445312 94.640625 57.472656 94.902344 57.523438 95.160156 C 57.574219 95.417969 57.652344 95.667969 57.753906 95.910156 C 57.851562 96.152344 57.976562 96.382812 58.121094 96.601562 C 58.269531 96.820312 58.433594 97.019531 58.621094 97.207031 C 58.804688 97.394531 59.007812 97.558594 59.226562 97.703125 C 59.445312 97.851562 59.675781 97.972656 59.917969 98.074219 C 60.160156 98.175781 60.410156 98.25 60.667969 98.304688 C 60.925781 98.355469 61.1875 98.382812 61.449219 98.382812 Z M 61.449219 98.382812 "/><path style=" stroke:none;fill-rule:evenodd;fill:#fb4455;fill-opacity:1;" d="M 63.617188 72.707031 C 63.882812 72.707031 64.140625 72.679688 64.398438 72.628906 C 64.65625 72.578125 64.90625 72.503906 65.152344 72.402344 C 65.394531 72.300781 65.625 72.179688 65.84375 72.03125 C 66.0625 71.886719 66.261719 71.722656 66.449219 71.535156 C 66.636719 71.347656 66.800781 71.148438 66.949219 70.929688 C 67.09375 70.710938 67.21875 70.480469 67.316406 70.234375 C 67.417969 69.992188 67.492188 69.742188 67.546875 69.484375 C 67.597656 69.226562 67.621094 68.96875 67.621094 68.703125 C 67.621094 68.441406 67.597656 68.179688 67.546875 67.921875 C 67.492188 67.664062 67.417969 67.414062 67.316406 67.171875 C 67.21875 66.929688 67.09375 66.699219 66.949219 66.480469 C 66.800781 66.261719 66.636719 66.058594 66.449219 65.875 C 66.261719 65.6875 66.0625 65.523438 65.84375 65.375 C 65.625 65.230469 65.394531 65.105469 65.152344 65.003906 C 64.90625 64.90625 64.65625 64.828125 64.398438 64.777344 C 64.140625 64.726562 63.882812 64.699219 63.617188 64.699219 C 63.355469 64.699219 63.09375 64.726562 62.835938 64.777344 C 62.578125 64.828125 62.328125 64.90625 62.085938 65.003906 C 61.84375 65.105469 61.613281 65.230469 61.394531 65.375 C 61.175781 65.523438 60.972656 65.6875 60.789062 65.875 C 60.601562 66.058594 60.433594 66.261719 60.289062 66.480469 C 60.144531 66.699219 60.019531 66.929688 59.917969 67.171875 C 59.820312 67.414062 59.742188 67.664062 59.691406 67.921875 C 59.640625 68.179688 59.613281 68.441406 59.613281 68.703125 C 59.613281 68.96875 59.640625 69.226562 59.691406 69.484375 C 59.746094 69.742188 59.820312 69.992188 59.921875 70.234375 C 60.023438 70.476562 60.144531 70.707031 60.292969 70.925781 C 60.4375 71.144531 60.605469 71.347656 60.789062 71.53125 C 60.976562 71.71875 61.175781 71.882812 61.394531 72.03125 C 61.613281 72.175781 61.84375 72.300781 62.085938 72.398438 C 62.328125 72.5 62.582031 72.578125 62.835938 72.628906 C 63.09375 72.679688 63.355469 72.707031 63.617188 72.707031 Z M 63.617188 72.707031 "/><path style=" stroke:none;fill-rule:evenodd;fill:#45bf64;fill-opacity:1;" d="M 86.078125 79.648438 C 86.339844 79.644531 86.601562 79.621094 86.859375 79.570312 C 87.117188 79.519531 87.367188 79.441406 87.609375 79.339844 C 87.851562 79.238281 88.082031 79.117188 88.300781 78.96875 C 88.515625 78.824219 88.71875 78.660156 88.90625 78.472656 C 89.089844 78.285156 89.257812 78.085938 89.402344 77.867188 C 89.546875 77.648438 89.671875 77.417969 89.769531 77.175781 C 89.871094 76.929688 89.945312 76.679688 89.996094 76.425781 C 90.046875 76.167969 90.074219 75.90625 90.074219 75.644531 C 90.074219 75.382812 90.046875 75.121094 89.996094 74.863281 C 89.945312 74.605469 89.867188 74.355469 89.769531 74.113281 C 89.667969 73.871094 89.542969 73.640625 89.398438 73.421875 C 89.25 73.203125 89.085938 73.003906 88.898438 72.816406 C 88.714844 72.632812 88.511719 72.464844 88.292969 72.320312 C 88.074219 72.175781 87.84375 72.050781 87.601562 71.949219 C 87.359375 71.851562 87.109375 71.773438 86.851562 71.722656 C 86.59375 71.671875 86.332031 71.648438 86.070312 71.648438 C 85.808594 71.648438 85.546875 71.675781 85.289062 71.726562 C 85.03125 71.777344 84.78125 71.851562 84.539062 71.953125 C 84.296875 72.054688 84.066406 72.179688 83.847656 72.324219 C 83.628906 72.46875 83.429688 72.636719 83.242188 72.820312 C 83.058594 73.007812 82.890625 73.210938 82.746094 73.429688 C 82.601562 73.648438 82.476562 73.878906 82.375 74.121094 C 82.277344 74.363281 82.199219 74.613281 82.148438 74.871094 C 82.097656 75.128906 82.074219 75.386719 82.074219 75.652344 C 82.074219 75.914062 82.097656 76.171875 82.152344 76.429688 C 82.203125 76.6875 82.277344 76.9375 82.378906 77.179688 C 82.480469 77.421875 82.601562 77.652344 82.75 77.871094 C 82.894531 78.089844 83.0625 78.292969 83.246094 78.476562 C 83.433594 78.664062 83.636719 78.828125 83.855469 78.976562 C 84.074219 79.121094 84.304688 79.242188 84.546875 79.34375 C 84.789062 79.445312 85.039062 79.519531 85.296875 79.570312 C 85.554688 79.621094 85.816406 79.648438 86.078125 79.648438 Z M 86.078125 79.648438 "/><path style=" stroke:none;fill-rule:evenodd;fill:#fea832;fill-opacity:1;" d="M 116.136719 52.835938 C 116.398438 52.835938 116.660156 52.808594 116.917969 52.757812 C 117.175781 52.707031 117.425781 52.628906 117.667969 52.527344 C 117.910156 52.429688 118.140625 52.304688 118.359375 52.160156 C 118.578125 52.011719 118.777344 51.847656 118.964844 51.660156 C 119.148438 51.476562 119.316406 51.273438 119.460938 51.054688 C 119.605469 50.835938 119.730469 50.605469 119.832031 50.363281 C 119.929688 50.121094 120.007812 49.871094 120.058594 49.613281 C 120.109375 49.355469 120.132812 49.09375 120.132812 48.832031 C 120.132812 48.570312 120.109375 48.308594 120.054688 48.050781 C 120.003906 47.792969 119.929688 47.542969 119.828125 47.300781 C 119.726562 47.058594 119.605469 46.828125 119.457031 46.609375 C 119.3125 46.390625 119.144531 46.191406 118.960938 46.003906 C 118.773438 45.820312 118.570312 45.652344 118.351562 45.507812 C 118.136719 45.363281 117.902344 45.238281 117.660156 45.136719 C 117.417969 45.039062 117.167969 44.960938 116.910156 44.910156 C 116.652344 44.859375 116.394531 44.835938 116.128906 44.835938 C 115.867188 44.835938 115.605469 44.863281 115.351562 44.914062 C 115.09375 44.964844 114.84375 45.039062 114.597656 45.140625 C 114.355469 45.242188 114.125 45.367188 113.90625 45.511719 C 113.691406 45.65625 113.488281 45.824219 113.300781 46.007812 C 113.117188 46.195312 112.949219 46.398438 112.804688 46.617188 C 112.660156 46.835938 112.535156 47.066406 112.4375 47.308594 C 112.335938 47.550781 112.261719 47.800781 112.210938 48.058594 C 112.160156 48.316406 112.132812 48.574219 112.132812 48.839844 C 112.132812 49.101562 112.160156 49.359375 112.210938 49.617188 C 112.261719 49.875 112.339844 50.125 112.441406 50.367188 C 112.542969 50.609375 112.664062 50.839844 112.8125 51.058594 C 112.957031 51.277344 113.125 51.480469 113.308594 51.664062 C 113.496094 51.847656 113.695312 52.015625 113.914062 52.160156 C 114.132812 52.304688 114.363281 52.429688 114.605469 52.53125 C 114.847656 52.628906 115.097656 52.707031 115.355469 52.757812 C 115.613281 52.808594 115.875 52.835938 116.136719 52.835938 Z M 116.136719 52.835938 "/><path style=" stroke:none;fill-rule:nonzero;fill:#3eac5a;fill-opacity:1;" d="M 102.253906 85.589844 L 105.613281 85.589844 L 105.613281 120.402344 L 102.253906 120.402344 Z M 102.253906 85.589844 "/><path style=" stroke:none;fill-rule:nonzero;fill:#e5972d;fill-opacity:1;" d="M 87.1875 93.695312 L 90.542969 93.695312 L 90.542969 120.402344 L 87.1875 120.402344 Z M 87.1875 93.695312 "/><path style=" stroke:none;fill-rule:nonzero;fill:#e23d4d;fill-opacity:1;" d="M 72.117188 101.800781 L 75.472656 101.800781 L 75.472656 120.402344 L 72.117188 120.402344 Z M 72.117188 101.800781 "/><path style=" stroke:none;fill-rule:evenodd;fill:#e23d4d;fill-opacity:1;" d="M 22.398438 110.742188 C 22.402344 110.332031 22.460938 109.933594 22.585938 109.546875 C 22.707031 109.160156 22.882812 108.796875 23.113281 108.460938 C 23.347656 108.128906 23.621094 107.835938 23.945312 107.585938 C 24.265625 107.335938 24.613281 107.136719 24.996094 106.992188 C 24.699219 106.882812 24.394531 106.808594 24.078125 106.773438 C 23.914062 106.753906 23.75 106.742188 23.585938 106.746094 C 23.324219 106.746094 23.066406 106.769531 22.808594 106.820312 C 22.550781 106.871094 22.300781 106.949219 22.058594 107.050781 C 21.8125 107.148438 21.582031 107.273438 21.367188 107.417969 C 21.148438 107.566406 20.945312 107.730469 20.757812 107.914062 C 20.574219 108.101562 20.40625 108.304688 20.261719 108.523438 C 20.117188 108.742188 19.992188 108.972656 19.890625 109.214844 C 19.792969 109.457031 19.714844 109.707031 19.664062 109.964844 C 19.613281 110.222656 19.585938 110.480469 19.585938 110.742188 C 19.585938 111.007812 19.613281 111.265625 19.664062 111.523438 C 19.714844 111.78125 19.792969 112.03125 19.890625 112.273438 C 19.992188 112.515625 20.117188 112.746094 20.261719 112.964844 C 20.40625 113.183594 20.574219 113.386719 20.757812 113.570312 C 20.945312 113.757812 21.148438 113.921875 21.367188 114.070312 C 21.582031 114.214844 21.8125 114.339844 22.058594 114.4375 C 22.300781 114.539062 22.550781 114.617188 22.808594 114.667969 C 23.066406 114.71875 23.324219 114.742188 23.585938 114.742188 C 24.074219 114.746094 24.542969 114.660156 24.996094 114.488281 C 24.472656 114.289062 24.011719 113.996094 23.609375 113.609375 C 23.207031 113.21875 22.902344 112.765625 22.691406 112.246094 C 22.496094 111.765625 22.402344 111.261719 22.398438 110.742188 Z M 22.398438 110.742188 "/><path style=" stroke:none;fill-rule:evenodd;fill:#e5972d;fill-opacity:1;" d="M 41.4375 81.460938 C 41.4375 81.054688 41.496094 80.65625 41.617188 80.265625 C 41.738281 79.878906 41.914062 79.515625 42.144531 79.179688 C 42.378906 78.847656 42.652344 78.554688 42.972656 78.304688 C 43.292969 78.054688 43.644531 77.855469 44.027344 77.714844 C 43.730469 77.597656 43.425781 77.519531 43.109375 77.484375 C 42.945312 77.464844 42.78125 77.457031 42.617188 77.457031 C 42.324219 77.457031 42.039062 77.492188 41.753906 77.554688 C 41.46875 77.621094 41.191406 77.714844 40.929688 77.839844 C 40.664062 77.964844 40.417969 78.117188 40.1875 78.296875 C 39.953125 78.472656 39.746094 78.675781 39.558594 78.902344 C 39.371094 79.125 39.210938 79.367188 39.078125 79.628906 C 38.945312 79.886719 38.839844 80.15625 38.765625 80.441406 C 38.691406 80.722656 38.648438 81.011719 38.640625 81.300781 C 38.628906 81.59375 38.648438 81.882812 38.699219 82.171875 C 38.753906 82.457031 38.835938 82.738281 38.949219 83.007812 C 39.0625 83.277344 39.203125 83.53125 39.371094 83.769531 C 39.539062 84.007812 39.734375 84.222656 39.949219 84.417969 C 40.167969 84.617188 40.402344 84.785156 40.65625 84.929688 C 40.910156 85.074219 41.175781 85.191406 41.453125 85.277344 C 41.734375 85.363281 42.019531 85.417969 42.308594 85.441406 C 42.601562 85.464844 42.890625 85.457031 43.179688 85.417969 C 43.46875 85.378906 43.753906 85.308594 44.027344 85.207031 C 42.9375 84.792969 42.171875 84.042969 41.730469 82.96875 C 41.53125 82.484375 41.433594 81.980469 41.4375 81.460938 Z M 41.4375 81.460938 "/><path style=" stroke:none;fill-rule:evenodd;fill:#5f96e6;fill-opacity:1;" d="M 60.261719 94.378906 C 60.261719 93.972656 60.324219 93.574219 60.445312 93.183594 C 60.566406 92.796875 60.742188 92.433594 60.972656 92.101562 C 61.207031 91.765625 61.484375 91.472656 61.804688 91.222656 C 62.125 90.972656 62.476562 90.773438 62.855469 90.632812 C 62.5625 90.519531 62.253906 90.441406 61.941406 90.40625 C 61.777344 90.382812 61.613281 90.375 61.449219 90.375 C 61.15625 90.375 60.867188 90.40625 60.578125 90.472656 C 60.292969 90.535156 60.019531 90.628906 59.753906 90.753906 C 59.484375 90.875 59.238281 91.027344 59.003906 91.207031 C 58.773438 91.386719 58.5625 91.589844 58.375 91.8125 C 58.1875 92.039062 58.023438 92.28125 57.890625 92.542969 C 57.757812 92.800781 57.652344 93.074219 57.578125 93.359375 C 57.5 93.640625 57.457031 93.929688 57.445312 94.222656 C 57.433594 94.515625 57.457031 94.804688 57.507812 95.09375 C 57.5625 95.382812 57.644531 95.664062 57.757812 95.933594 C 57.871094 96.203125 58.011719 96.457031 58.183594 96.695312 C 58.351562 96.9375 58.546875 97.152344 58.765625 97.351562 C 58.980469 97.546875 59.21875 97.71875 59.472656 97.863281 C 59.726562 98.007812 59.996094 98.121094 60.277344 98.207031 C 60.558594 98.292969 60.84375 98.347656 61.136719 98.371094 C 61.429688 98.394531 61.71875 98.382812 62.011719 98.34375 C 62.300781 98.300781 62.582031 98.230469 62.855469 98.125 C 62.335938 97.929688 61.875 97.636719 61.472656 97.246094 C 61.074219 96.855469 60.769531 96.402344 60.558594 95.886719 C 60.359375 95.402344 60.261719 94.902344 60.261719 94.378906 Z M 60.261719 94.378906 "/><path style=" stroke:none;fill-rule:evenodd;fill:#e23d4d;fill-opacity:1;" d="M 62.429688 68.703125 C 62.429688 68.296875 62.492188 67.898438 62.613281 67.511719 C 62.734375 67.121094 62.910156 66.761719 63.144531 66.425781 C 63.375 66.089844 63.652344 65.796875 63.972656 65.546875 C 64.292969 65.296875 64.644531 65.101562 65.027344 64.957031 C 64.730469 64.84375 64.425781 64.769531 64.109375 64.730469 C 63.945312 64.710938 63.78125 64.699219 63.617188 64.703125 C 63.089844 64.707031 62.582031 64.808594 62.09375 65.015625 C 61.609375 65.21875 61.179688 65.511719 60.808594 65.882812 C 60.433594 66.257812 60.148438 66.691406 59.949219 67.179688 C 59.746094 67.667969 59.644531 68.175781 59.644531 68.703125 C 59.644531 69.230469 59.746094 69.742188 59.949219 70.230469 C 60.148438 70.71875 60.433594 71.148438 60.808594 71.523438 C 61.179688 71.898438 61.609375 72.1875 62.09375 72.394531 C 62.582031 72.597656 63.089844 72.703125 63.617188 72.707031 C 64.101562 72.707031 64.570312 72.621094 65.027344 72.453125 C 64.503906 72.253906 64.042969 71.960938 63.640625 71.570312 C 63.238281 71.183594 62.933594 70.730469 62.722656 70.210938 C 62.527344 69.726562 62.433594 69.226562 62.429688 68.703125 Z M 62.429688 68.703125 "/><path style=" stroke:none;fill-rule:evenodd;fill:#3eac5a;fill-opacity:1;" d="M 84.890625 75.652344 C 84.890625 75.242188 84.949219 74.84375 85.070312 74.457031 C 85.191406 74.066406 85.371094 73.707031 85.601562 73.371094 C 85.832031 73.035156 86.109375 72.746094 86.429688 72.492188 C 86.753906 72.242188 87.105469 72.046875 87.484375 71.902344 C 87.191406 71.789062 86.882812 71.710938 86.566406 71.675781 C 86.40625 71.65625 86.242188 71.648438 86.078125 71.648438 C 85.816406 71.648438 85.554688 71.671875 85.296875 71.722656 C 85.039062 71.773438 84.789062 71.851562 84.542969 71.949219 C 84.300781 72.050781 84.070312 72.175781 83.851562 72.320312 C 83.632812 72.464844 83.429688 72.632812 83.246094 72.816406 C 83.058594 73.003906 82.894531 73.207031 82.746094 73.421875 C 82.601562 73.640625 82.476562 73.871094 82.375 74.117188 C 82.277344 74.359375 82.199219 74.609375 82.148438 74.867188 C 82.097656 75.125 82.070312 75.382812 82.070312 75.648438 C 82.070312 75.910156 82.097656 76.171875 82.148438 76.429688 C 82.199219 76.6875 82.277344 76.9375 82.375 77.179688 C 82.476562 77.421875 82.601562 77.652344 82.746094 77.871094 C 82.894531 78.089844 83.058594 78.292969 83.246094 78.476562 C 83.429688 78.664062 83.632812 78.828125 83.851562 78.972656 C 84.070312 79.121094 84.300781 79.242188 84.542969 79.34375 C 84.789062 79.445312 85.039062 79.519531 85.296875 79.570312 C 85.554688 79.621094 85.816406 79.648438 86.078125 79.648438 C 86.5625 79.648438 87.03125 79.566406 87.484375 79.398438 C 87.105469 79.257812 86.753906 79.058594 86.429688 78.808594 C 86.109375 78.558594 85.832031 78.265625 85.601562 77.929688 C 85.371094 77.597656 85.191406 77.234375 85.070312 76.847656 C 84.949219 76.457031 84.890625 76.058594 84.890625 75.652344 Z M 84.890625 75.652344 "/><path style=" stroke:none;fill-rule:evenodd;fill:#e5972d;fill-opacity:1;" d="M 114.957031 48.839844 C 114.953125 48.433594 115.015625 48.035156 115.136719 47.644531 C 115.257812 47.257812 115.433594 46.894531 115.664062 46.558594 C 115.894531 46.226562 116.171875 45.933594 116.492188 45.683594 C 116.8125 45.433594 117.164062 45.234375 117.542969 45.089844 C 117.25 44.976562 116.949219 44.902344 116.632812 44.863281 C 116.46875 44.84375 116.304688 44.835938 116.136719 44.835938 C 115.84375 44.835938 115.554688 44.871094 115.269531 44.933594 C 114.984375 45 114.710938 45.09375 114.445312 45.21875 C 114.183594 45.34375 113.933594 45.496094 113.703125 45.671875 C 113.472656 45.851562 113.265625 46.054688 113.078125 46.277344 C 112.890625 46.503906 112.730469 46.746094 112.597656 47.007812 C 112.464844 47.265625 112.359375 47.535156 112.285156 47.820312 C 112.210938 48.101562 112.167969 48.390625 112.15625 48.679688 C 112.144531 48.972656 112.167969 49.261719 112.21875 49.550781 C 112.269531 49.835938 112.355469 50.117188 112.46875 50.386719 C 112.582031 50.65625 112.722656 50.910156 112.890625 51.148438 C 113.058594 51.386719 113.25 51.601562 113.46875 51.796875 C 113.683594 51.996094 113.917969 52.164062 114.171875 52.308594 C 114.425781 52.453125 114.695312 52.570312 114.972656 52.65625 C 115.253906 52.742188 115.539062 52.796875 115.828125 52.820312 C 116.121094 52.84375 116.410156 52.835938 116.699219 52.796875 C 116.988281 52.757812 117.269531 52.6875 117.542969 52.585938 C 117.023438 52.386719 116.5625 52.089844 116.164062 51.699219 C 115.761719 51.308594 115.457031 50.855469 115.246094 50.339844 C 115.050781 49.859375 114.953125 49.359375 114.957031 48.839844 Z M 114.957031 48.839844 "/><path style=" stroke:none;fill-rule:evenodd;fill:#5f96e6;fill-opacity:1;" d="M 117.894531 70.140625 C 116.492188 70.023438 115.113281 69.765625 113.761719 69.378906 C 112.410156 68.988281 111.109375 68.472656 109.859375 67.824219 C 108.609375 67.179688 107.433594 66.417969 106.335938 65.542969 C 105.234375 64.667969 104.230469 63.691406 103.320312 62.617188 L 101.402344 64.324219 C 102.492188 65.363281 103.683594 66.273438 104.96875 67.0625 C 106.253906 67.847656 107.605469 68.492188 109.027344 68.992188 C 110.445312 69.496094 111.90625 69.839844 113.398438 70.035156 C 114.894531 70.230469 116.390625 70.265625 117.894531 70.140625 Z M 117.894531 70.140625 "/><path style=" stroke:none;fill-rule:evenodd;fill:#5f96e6;fill-opacity:1;" d="M 99.066406 61.707031 L 101.28125 59.738281 C 100.867188 59.042969 100.496094 58.324219 100.164062 57.585938 C 99.835938 56.851562 99.546875 56.09375 99.300781 55.324219 C 99.058594 54.554688 98.855469 53.773438 98.699219 52.980469 C 98.542969 52.1875 98.433594 51.386719 98.367188 50.578125 C 98.300781 49.773438 98.28125 48.96875 98.308594 48.160156 C 98.332031 47.351562 98.40625 46.546875 98.523438 45.746094 C 98.640625 44.945312 98.800781 44.15625 99.007812 43.375 C 99.214844 42.589844 99.464844 41.824219 99.757812 41.070312 C 100.050781 40.316406 100.386719 39.582031 100.765625 38.867188 C 101.140625 38.152344 101.558594 37.460938 102.015625 36.792969 C 102.46875 36.125 102.960938 35.484375 103.488281 34.871094 C 104.019531 34.257812 104.578125 33.679688 105.171875 33.128906 C 105.765625 32.582031 106.390625 32.066406 107.042969 31.589844 C 107.695312 31.113281 108.371094 30.671875 109.074219 30.269531 C 109.777344 29.871094 110.5 29.511719 111.242188 29.191406 C 111.984375 28.871094 112.746094 28.59375 113.519531 28.363281 C 114.957031 27.933594 116.421875 27.65625 117.914062 27.53125 C 116.890625 27.445312 115.867188 27.433594 114.84375 27.496094 C 113.820312 27.558594 112.804688 27.695312 111.800781 27.902344 C 110.792969 28.109375 109.808594 28.390625 108.84375 28.742188 C 107.878906 29.089844 106.945312 29.507812 106.042969 29.992188 C 105.136719 30.476562 104.273438 31.023438 103.445312 31.632812 C 102.621094 32.242188 101.84375 32.910156 101.113281 33.628906 C 100.382812 34.351562 99.707031 35.121094 99.089844 35.941406 C 98.46875 36.757812 97.914062 37.617188 97.417969 38.515625 C 96.921875 39.414062 96.492188 40.34375 96.132812 41.304688 C 95.769531 42.265625 95.480469 43.246094 95.257812 44.246094 C 95.039062 45.25 94.890625 46.261719 94.816406 47.285156 C 94.742188 48.308594 94.742188 49.332031 94.8125 50.355469 C 94.886719 51.378906 95.03125 52.390625 95.25 53.394531 C 95.46875 54.398438 95.757812 55.378906 96.121094 56.339844 C 96.480469 57.300781 96.90625 58.230469 97.402344 59.128906 C 97.894531 60.027344 98.449219 60.886719 99.066406 61.707031 Z M 99.066406 61.707031 "/><path style=" stroke:none;fill-rule:evenodd;fill:#e5972d;fill-opacity:1;" d="M 128.390625 89.628906 L 124.300781 76.007812 L 121.917969 76.71875 L 119.871094 77.335938 L 124.65625 93.261719 C 124.894531 94.054688 125.3125 94.734375 125.914062 95.300781 C 126.515625 95.867188 127.21875 96.246094 128.019531 96.433594 C 128.824219 96.625 129.621094 96.601562 130.414062 96.363281 C 131.207031 96.125 131.882812 95.707031 132.449219 95.105469 C 131.648438 94.910156 130.945312 94.53125 130.347656 93.964844 C 129.746094 93.398438 129.324219 92.722656 129.085938 91.933594 Z M 128.390625 89.628906 "/><path style=" stroke:none;fill-rule:evenodd;fill:#adb8c4;fill-opacity:1;" d="M 124.300781 76.007812 L 122.289062 69.308594 C 121.492188 69.546875 120.683594 69.742188 119.863281 69.882812 L 121.917969 76.71875 Z M 124.300781 76.007812 "/></g></svg>